# Low-poly convex avocado plush surface for MuJoCo flexcomp.
# x: depth, y: width, z: height; units are metres.
o avocado_plush
v 0.100000 0.000000 -0.370000
v 0.092388 0.061229 -0.370000
v 0.070711 0.113137 -0.370000
v 0.038268 0.147821 -0.370000
v 0.000000 0.160000 -0.370000
v -0.038268 0.147821 -0.370000
v -0.070711 0.113137 -0.370000
v -0.092388 0.061229 -0.370000
v -0.100000 0.000000 -0.370000
v -0.092388 -0.061229 -0.370000
v -0.070711 -0.113137 -0.370000
v -0.038268 -0.147821 -0.370000
v -0.000000 -0.160000 -0.370000
v 0.038268 -0.147821 -0.370000
v 0.070711 -0.113137 -0.370000
v 0.092388 -0.061229 -0.370000
v 0.140000 0.000000 -0.320000
v 0.129343 0.084190 -0.320000
v 0.098995 0.155563 -0.320000
v 0.053576 0.203253 -0.320000
v 0.000000 0.220000 -0.320000
v -0.053576 0.203253 -0.320000
v -0.098995 0.155563 -0.320000
v -0.129343 0.084190 -0.320000
v -0.140000 0.000000 -0.320000
v -0.129343 -0.084190 -0.320000
v -0.098995 -0.155563 -0.320000
v -0.053576 -0.203253 -0.320000
v -0.000000 -0.220000 -0.320000
v 0.053576 -0.203253 -0.320000
v 0.098995 -0.155563 -0.320000
v 0.129343 -0.084190 -0.320000
v 0.160000 0.000000 -0.220000
v 0.147821 0.103325 -0.220000
v 0.113137 0.190919 -0.220000
v 0.061229 0.249447 -0.220000
v 0.000000 0.270000 -0.220000
v -0.061229 0.249447 -0.220000
v -0.113137 0.190919 -0.220000
v -0.147821 0.103325 -0.220000
v -0.160000 0.000000 -0.220000
v -0.147821 -0.103325 -0.220000
v -0.113137 -0.190919 -0.220000
v -0.061229 -0.249447 -0.220000
v -0.000000 -0.270000 -0.220000
v 0.061229 -0.249447 -0.220000
v 0.113137 -0.190919 -0.220000
v 0.147821 -0.103325 -0.220000
v 0.170000 0.000000 -0.070000
v 0.157060 0.110978 -0.070000
v 0.120208 0.205061 -0.070000
v 0.065056 0.267925 -0.070000
v 0.000000 0.290000 -0.070000
v -0.065056 0.267925 -0.070000
v -0.120208 0.205061 -0.070000
v -0.157060 0.110978 -0.070000
v -0.170000 0.000000 -0.070000
v -0.157060 -0.110978 -0.070000
v -0.120208 -0.205061 -0.070000
v -0.065056 -0.267925 -0.070000
v -0.000000 -0.290000 -0.070000
v 0.065056 -0.267925 -0.070000
v 0.120208 -0.205061 -0.070000
v 0.157060 -0.110978 -0.070000
v 0.160000 0.000000 0.100000
v 0.147821 0.095671 0.100000
v 0.113137 0.176777 0.100000
v 0.061229 0.230970 0.100000
v 0.000000 0.250000 0.100000
v -0.061229 0.230970 0.100000
v -0.113137 0.176777 0.100000
v -0.147821 0.095671 0.100000
v -0.160000 0.000000 0.100000
v -0.147821 -0.095671 0.100000
v -0.113137 -0.176777 0.100000
v -0.061229 -0.230970 0.100000
v -0.000000 -0.250000 0.100000
v 0.061229 -0.230970 0.100000
v 0.113137 -0.176777 0.100000
v 0.147821 -0.095671 0.100000
v 0.120000 0.000000 0.240000
v 0.110866 0.068883 0.240000
v 0.084853 0.127279 0.240000
v 0.045922 0.166298 0.240000
v 0.000000 0.180000 0.240000
v -0.045922 0.166298 0.240000
v -0.084853 0.127279 0.240000
v -0.110866 0.068883 0.240000
v -0.120000 0.000000 0.240000
v -0.110866 -0.068883 0.240000
v -0.084853 -0.127279 0.240000
v -0.045922 -0.166298 0.240000
v -0.000000 -0.180000 0.240000
v 0.045922 -0.166298 0.240000
v 0.084853 -0.127279 0.240000
v 0.110866 -0.068883 0.240000
v 0.070000 0.000000 0.340000
v 0.064672 0.034442 0.340000
v 0.049497 0.063640 0.340000
v 0.026788 0.083149 0.340000
v 0.000000 0.090000 0.340000
v -0.026788 0.083149 0.340000
v -0.049497 0.063640 0.340000
v -0.064672 0.034442 0.340000
v -0.070000 0.000000 0.340000
v -0.064672 -0.034442 0.340000
v -0.049497 -0.063640 0.340000
v -0.026788 -0.083149 0.340000
v -0.000000 -0.090000 0.340000
v 0.026788 -0.083149 0.340000
v 0.049497 -0.063640 0.340000
v 0.064672 -0.034442 0.340000
v 0.000000 0.000000 -0.370000
v 0.000000 0.000000 0.390000
f 113 2 1
f 113 3 2
f 113 4 3
f 113 5 4
f 113 6 5
f 113 7 6
f 113 8 7
f 113 9 8
f 113 10 9
f 113 11 10
f 113 12 11
f 113 13 12
f 113 14 13
f 113 15 14
f 113 16 15
f 113 1 16
f 1 2 18
f 1 18 17
f 2 3 19
f 2 19 18
f 3 4 20
f 3 20 19
f 4 5 21
f 4 21 20
f 5 6 22
f 5 22 21
f 6 7 23
f 6 23 22
f 7 8 24
f 7 24 23
f 8 9 25
f 8 25 24
f 9 10 26
f 9 26 25
f 10 11 27
f 10 27 26
f 11 12 28
f 11 28 27
f 12 13 29
f 12 29 28
f 13 14 30
f 13 30 29
f 14 15 31
f 14 31 30
f 15 16 32
f 15 32 31
f 16 1 17
f 16 17 32
f 17 18 34
f 17 34 33
f 18 19 35
f 18 35 34
f 19 20 36
f 19 36 35
f 20 21 37
f 20 37 36
f 21 22 38
f 21 38 37
f 22 23 39
f 22 39 38
f 23 24 40
f 23 40 39
f 24 25 41
f 24 41 40
f 25 26 42
f 25 42 41
f 26 27 43
f 26 43 42
f 27 28 44
f 27 44 43
f 28 29 45
f 28 45 44
f 29 30 46
f 29 46 45
f 30 31 47
f 30 47 46
f 31 32 48
f 31 48 47
f 32 17 33
f 32 33 48
f 33 34 50
f 33 50 49
f 34 35 51
f 34 51 50
f 35 36 52
f 35 52 51
f 36 37 53
f 36 53 52
f 37 38 54
f 37 54 53
f 38 39 55
f 38 55 54
f 39 40 56
f 39 56 55
f 40 41 57
f 40 57 56
f 41 42 58
f 41 58 57
f 42 43 59
f 42 59 58
f 43 44 60
f 43 60 59
f 44 45 61
f 44 61 60
f 45 46 62
f 45 62 61
f 46 47 63
f 46 63 62
f 47 48 64
f 47 64 63
f 48 33 49
f 48 49 64
f 49 50 66
f 49 66 65
f 50 51 67
f 50 67 66
f 51 52 68
f 51 68 67
f 52 53 69
f 52 69 68
f 53 54 70
f 53 70 69
f 54 55 71
f 54 71 70
f 55 56 72
f 55 72 71
f 56 57 73
f 56 73 72
f 57 58 74
f 57 74 73
f 58 59 75
f 58 75 74
f 59 60 76
f 59 76 75
f 60 61 77
f 60 77 76
f 61 62 78
f 61 78 77
f 62 63 79
f 62 79 78
f 63 64 80
f 63 80 79
f 64 49 65
f 64 65 80
f 65 66 82
f 65 82 81
f 66 67 83
f 66 83 82
f 67 68 84
f 67 84 83
f 68 69 85
f 68 85 84
f 69 70 86
f 69 86 85
f 70 71 87
f 70 87 86
f 71 72 88
f 71 88 87
f 72 73 89
f 72 89 88
f 73 74 90
f 73 90 89
f 74 75 91
f 74 91 90
f 75 76 92
f 75 92 91
f 76 77 93
f 76 93 92
f 77 78 94
f 77 94 93
f 78 79 95
f 78 95 94
f 79 80 96
f 79 96 95
f 80 65 81
f 80 81 96
f 81 82 98
f 81 98 97
f 82 83 99
f 82 99 98
f 83 84 100
f 83 100 99
f 84 85 101
f 84 101 100
f 85 86 102
f 85 102 101
f 86 87 103
f 86 103 102
f 87 88 104
f 87 104 103
f 88 89 105
f 88 105 104
f 89 90 106
f 89 106 105
f 90 91 107
f 90 107 106
f 91 92 108
f 91 108 107
f 92 93 109
f 92 109 108
f 93 94 110
f 93 110 109
f 94 95 111
f 94 111 110
f 95 96 112
f 95 112 111
f 96 81 97
f 96 97 112
f 114 97 98
f 114 98 99
f 114 99 100
f 114 100 101
f 114 101 102
f 114 102 103
f 114 103 104
f 114 104 105
f 114 105 106
f 114 106 107
f 114 107 108
f 114 108 109
f 114 109 110
f 114 110 111
f 114 111 112
f 114 112 97
