# Blender 4.0.2
# www.blender.org
o SM_Folding_Table_JFG_1
v -0.037430 -0.061539 0.666091
v -0.037430 -0.061539 0.684758
v -0.037410 0.057013 0.666091
v -0.037410 0.057013 0.684758
v 0.014608 -0.061568 0.685083
v 0.014629 0.056985 0.685083
v 0.014608 -0.061568 0.667080
v 0.014629 0.056985 0.667080
v 0.369421 -0.028850 0.683704
v 0.369421 -0.023195 0.684378
v 0.367346 -0.020368 0.684725
v 0.365270 -0.023196 0.684400
v 0.365270 -0.028851 0.683726
v 0.367346 -0.031679 0.683379
v 0.369307 -0.024022 0.562701
v 0.369306 -0.018353 0.562543
v 0.367230 -0.015521 0.562519
v 0.365155 -0.018357 0.562653
v 0.365156 -0.024026 0.562811
v 0.367232 -0.026859 0.562836
v 0.369194 -0.030250 0.507629
v 0.369186 -0.025048 0.503899
v 0.367106 -0.022448 0.502101
v 0.365034 -0.025051 0.504034
v 0.365043 -0.030253 0.507764
v 0.367123 -0.032853 0.509562
v 0.369160 -0.035666 0.490623
v 0.369149 -0.030822 0.485746
v 0.367068 -0.028403 0.483369
v 0.364998 -0.030828 0.485869
v 0.365009 -0.035672 0.490746
v 0.367090 -0.038091 0.493123
v 0.369107 -0.053434 0.452379
v 0.369094 -0.049177 0.446183
v 0.367012 -0.047059 0.443130
v 0.364942 -0.049198 0.446273
v 0.364955 -0.053456 0.452470
v 0.367037 -0.055574 0.455523
v 0.369091 -0.066395 0.429265
v 0.369078 -0.062295 0.422784
v 0.366996 -0.060260 0.419581
v 0.364927 -0.062325 0.422859
v 0.364940 -0.066424 0.429340
v 0.367022 -0.068460 0.432543
v 0.369085 -0.082476 0.402204
v 0.369072 -0.078400 0.395680
v 0.366990 -0.076381 0.392450
v 0.364921 -0.078437 0.395744
v 0.364934 -0.082512 0.402267
v 0.367016 -0.084531 0.405497
v 0.369087 -0.098638 0.374088
v 0.369074 -0.094404 0.367849
v 0.366992 -0.092307 0.364756
v 0.364923 -0.094446 0.367902
v 0.364936 -0.098680 0.374142
v 0.367018 -0.100776 0.377235
v 0.369099 -0.122261 0.322805
v 0.369086 -0.117417 0.317929
v 0.367003 -0.115021 0.315507
v 0.364934 -0.117469 0.317961
v 0.364948 -0.122313 0.322836
v 0.367030 -0.124709 0.325258
v 0.369118 -0.136172 0.272256
v 0.369104 -0.130760 0.269460
v 0.367022 -0.128083 0.268064
v 0.364953 -0.130819 0.269465
v 0.364967 -0.136231 0.272261
v 0.367050 -0.138907 0.273657
v 0.369150 -0.144090 0.182994
v 0.369135 -0.138426 0.182573
v 0.367052 -0.135625 0.182356
v 0.364984 -0.138488 0.182560
v 0.364999 -0.144152 0.182981
v 0.367082 -0.146953 0.183199
v 0.369172 -0.144123 0.001550
v 0.369157 -0.138453 0.001550
v 0.367074 -0.135649 0.001550
v 0.365006 -0.138514 0.001550
v 0.365021 -0.144184 0.001550
v 0.367104 -0.146988 0.001550
v 0.369421 0.034305 0.683704
v 0.369421 0.028650 0.684378
v 0.367346 0.025822 0.684725
v 0.365270 0.028650 0.684400
v 0.365270 0.034306 0.683726
v 0.367346 0.037133 0.683379
v 0.369307 0.029477 0.562701
v 0.369306 0.023808 0.562543
v 0.367230 0.020975 0.562519
v 0.365155 0.023812 0.562653
v 0.365156 0.029481 0.562811
v 0.367232 0.032313 0.562836
v 0.369194 0.035705 0.507629
v 0.369186 0.030502 0.503899
v 0.367106 0.027902 0.502101
v 0.365034 0.030505 0.504034
v 0.365043 0.035707 0.507764
v 0.367123 0.038307 0.509562
v 0.369160 0.041120 0.490623
v 0.369149 0.036276 0.485746
v 0.367068 0.033858 0.483369
v 0.364998 0.036283 0.485869
v 0.365009 0.041126 0.490746
v 0.367090 0.043545 0.493123
v 0.369107 0.058889 0.452379
v 0.369094 0.054631 0.446183
v 0.367012 0.052513 0.443130
v 0.364942 0.054652 0.446273
v 0.364955 0.058910 0.452470
v 0.367037 0.061028 0.455523
v 0.369091 0.071849 0.429265
v 0.369078 0.067749 0.422784
v 0.366996 0.065714 0.419581
v 0.364927 0.067779 0.422859
v 0.364940 0.071879 0.429340
v 0.367022 0.073914 0.432543
v 0.369085 0.087930 0.402204
v 0.369072 0.083855 0.395680
v 0.366990 0.081835 0.392450
v 0.364921 0.083891 0.395744
v 0.364934 0.087966 0.402267
v 0.367016 0.089986 0.405497
v 0.369087 0.104092 0.374088
v 0.369074 0.099858 0.367849
v 0.366992 0.097762 0.364756
v 0.364923 0.099900 0.367902
v 0.364936 0.104134 0.374142
v 0.367018 0.106231 0.377235
v 0.369099 0.127716 0.322805
v 0.369086 0.122872 0.317929
v 0.367003 0.120475 0.315507
v 0.364934 0.122923 0.317961
v 0.364948 0.127767 0.322836
v 0.367030 0.130164 0.325258
v 0.369118 0.141626 0.272256
v 0.369104 0.136214 0.269460
v 0.367022 0.133538 0.268064
v 0.364953 0.136273 0.269465
v 0.364967 0.141685 0.272261
v 0.367050 0.144362 0.273657
v 0.369150 0.149544 0.182994
v 0.369135 0.143880 0.182573
v 0.367052 0.141079 0.182356
v 0.364984 0.143942 0.182560
v 0.364999 0.149606 0.182981
v 0.367082 0.152407 0.183199
v 0.369173 0.149577 0.001550
v 0.369157 0.143907 0.001550
v 0.367074 0.141103 0.001550
v 0.365006 0.143969 0.001550
v 0.365021 0.149638 0.001550
v 0.367104 0.152442 0.001550
v 0.369266 -0.139179 0.185311
v 0.369266 0.146860 0.185311
v 0.368127 -0.139179 0.177591
v 0.368128 0.146860 0.177591
v 0.365851 -0.139179 0.177591
v 0.365851 0.146860 0.177591
v 0.364712 -0.139179 0.185311
v 0.364712 0.146860 0.185311
v 0.365851 -0.139179 0.193030
v 0.365851 0.146860 0.193030
v 0.368127 -0.139179 0.193030
v 0.368128 0.146860 0.193030
v 0.370793 -0.140908 0.000000
v 0.370793 -0.140908 0.020037
v 0.368768 -0.132614 0.000000
v 0.368768 -0.132614 0.020037
v 0.364720 -0.132614 0.000000
v 0.364720 -0.132614 0.020037
v 0.362696 -0.140908 0.000000
v 0.362696 -0.140908 0.020037
v 0.364720 -0.149202 0.000000
v 0.364720 -0.149202 0.020037
v 0.368768 -0.149202 0.000000
v 0.368768 -0.149202 0.020037
v 0.370793 0.147024 0.000000
v 0.370793 0.147024 0.020037
v 0.368768 0.155318 0.000000
v 0.368768 0.155318 0.020037
v 0.364720 0.155318 0.000000
v 0.364720 0.155318 0.020037
v 0.362696 0.147024 0.000000
v 0.362696 0.147024 0.020037
v 0.364720 0.138731 0.000000
v 0.364720 0.138731 0.020037
v 0.368768 0.138731 0.000000
v 0.368768 0.138731 0.020037
v 0.370888 -0.025466 0.664665
v 0.370888 -0.025466 0.684701
v 0.368864 -0.017172 0.664665
v 0.368864 -0.017172 0.684701
v 0.364815 -0.017172 0.664665
v 0.364815 -0.017172 0.684701
v 0.362791 -0.025466 0.664665
v 0.362791 -0.025466 0.684701
v 0.364815 -0.033759 0.664665
v 0.364815 -0.033759 0.684701
v 0.368864 -0.033760 0.664665
v 0.368864 -0.033760 0.684701
v 0.370888 0.030609 0.664665
v 0.370888 0.030609 0.684701
v 0.368864 0.038902 0.664665
v 0.368864 0.038902 0.684701
v 0.364815 0.038902 0.664665
v 0.364815 0.038902 0.684701
v 0.362791 0.030609 0.664665
v 0.362791 0.030609 0.684701
v 0.364815 0.022315 0.664665
v 0.364815 0.022315 0.684701
v 0.368864 0.022315 0.664665
v 0.368864 0.022315 0.684701
v -0.379930 -0.028850 0.683704
v -0.379930 -0.023195 0.684377
v -0.377854 -0.020368 0.684725
v -0.375778 -0.023196 0.684399
v -0.375778 -0.028851 0.683726
v -0.377854 -0.031678 0.683378
v -0.379816 -0.024022 0.562701
v -0.379815 -0.018353 0.562543
v -0.377738 -0.015521 0.562518
v -0.375663 -0.018357 0.562652
v -0.375664 -0.024026 0.562811
v -0.377741 -0.026859 0.562835
v -0.379703 -0.030250 0.507629
v -0.379694 -0.025048 0.503898
v -0.377614 -0.022448 0.502100
v -0.375543 -0.025051 0.504033
v -0.375551 -0.030253 0.507764
v -0.377631 -0.032853 0.509562
v -0.379669 -0.035666 0.490622
v -0.379658 -0.030822 0.485745
v -0.377577 -0.028403 0.483368
v -0.375507 -0.030828 0.485868
v -0.375517 -0.035672 0.490745
v -0.377598 -0.038091 0.493122
v -0.379615 -0.053434 0.452379
v -0.379602 -0.049177 0.446182
v -0.377520 -0.047059 0.443129
v -0.375451 -0.049198 0.446273
v -0.375464 -0.053456 0.452469
v -0.377546 -0.055574 0.455522
v -0.379599 -0.066395 0.429264
v -0.379587 -0.062295 0.422783
v -0.377504 -0.060260 0.419580
v -0.375435 -0.062325 0.422858
v -0.375448 -0.066424 0.429339
v -0.377530 -0.068460 0.432542
v -0.379594 -0.082475 0.402203
v -0.379581 -0.078400 0.395680
v -0.377499 -0.076381 0.392450
v -0.375430 -0.078437 0.395743
v -0.375442 -0.082512 0.402267
v -0.377524 -0.084531 0.405497
v -0.379595 -0.098638 0.374088
v -0.379583 -0.094404 0.367848
v -0.377500 -0.092307 0.364755
v -0.375431 -0.094445 0.367902
v -0.375444 -0.098680 0.374141
v -0.377526 -0.100776 0.377234
v -0.379607 -0.122261 0.322804
v -0.379594 -0.117417 0.317929
v -0.377512 -0.115021 0.315506
v -0.375443 -0.117469 0.317960
v -0.375456 -0.122313 0.322836
v -0.377538 -0.124709 0.325258
v -0.379627 -0.136172 0.272256
v -0.379613 -0.130760 0.269459
v -0.377530 -0.128083 0.268063
v -0.375461 -0.130819 0.269464
v -0.375475 -0.136231 0.272261
v -0.377558 -0.138907 0.273656
v -0.379659 -0.144090 0.182994
v -0.379644 -0.138426 0.182573
v -0.377560 -0.135625 0.182355
v -0.375492 -0.138488 0.182560
v -0.375507 -0.144151 0.182981
v -0.377590 -0.146953 0.183198
v -0.379681 -0.144123 0.001549
v -0.379666 -0.138453 0.001549
v -0.377583 -0.135649 0.001549
v -0.375515 -0.138514 0.001549
v -0.375530 -0.144184 0.001549
v -0.377613 -0.146988 0.001549
v -0.379930 0.034305 0.683704
v -0.379930 0.028650 0.684377
v -0.377854 0.025822 0.684725
v -0.375778 0.028651 0.684399
v -0.375778 0.034306 0.683726
v -0.377854 0.037133 0.683378
v -0.379816 0.029477 0.562701
v -0.379815 0.023808 0.562543
v -0.377738 0.020975 0.562518
v -0.375663 0.023812 0.562652
v -0.375664 0.029481 0.562811
v -0.377741 0.032313 0.562835
v -0.379703 0.035705 0.507629
v -0.379694 0.030502 0.503898
v -0.377614 0.027903 0.502100
v -0.375543 0.030505 0.504033
v -0.375551 0.035707 0.507764
v -0.377631 0.038307 0.509562
v -0.379669 0.041120 0.490622
v -0.379658 0.036276 0.485745
v -0.377577 0.033858 0.483368
v -0.375506 0.036283 0.485868
v -0.375517 0.041126 0.490745
v -0.377598 0.043545 0.493122
v -0.379615 0.058889 0.452379
v -0.379602 0.054631 0.446182
v -0.377520 0.052513 0.443129
v -0.375451 0.054653 0.446273
v -0.375464 0.058910 0.452469
v -0.377546 0.061028 0.455522
v -0.379599 0.071849 0.429264
v -0.379587 0.067749 0.422783
v -0.377504 0.065714 0.419580
v -0.375435 0.067779 0.422858
v -0.375448 0.071879 0.429339
v -0.377530 0.073914 0.432542
v -0.379594 0.087930 0.402203
v -0.379581 0.083855 0.395680
v -0.377499 0.081835 0.392450
v -0.375429 0.083891 0.395743
v -0.375442 0.087966 0.402267
v -0.377524 0.089986 0.405497
v -0.379595 0.104093 0.374088
v -0.379583 0.099858 0.367848
v -0.377500 0.097762 0.364755
v -0.375431 0.099900 0.367902
v -0.375444 0.104134 0.374141
v -0.377526 0.106231 0.377234
v -0.379607 0.127716 0.322804
v -0.379594 0.122872 0.317929
v -0.377512 0.120476 0.315506
v -0.375443 0.122923 0.317960
v -0.375456 0.127768 0.322836
v -0.377538 0.130164 0.325258
v -0.379627 0.141626 0.272256
v -0.379613 0.136214 0.269459
v -0.377530 0.133538 0.268063
v -0.375461 0.136273 0.269464
v -0.375475 0.141685 0.272261
v -0.377558 0.144362 0.273656
v -0.379658 0.149545 0.182994
v -0.379644 0.143881 0.182573
v -0.377561 0.141079 0.182355
v -0.375492 0.143942 0.182560
v -0.375507 0.149606 0.182981
v -0.377590 0.152407 0.183198
v -0.379681 0.149577 0.001549
v -0.379666 0.143907 0.001549
v -0.377583 0.141103 0.001549
v -0.375515 0.143969 0.001549
v -0.375529 0.149638 0.001549
v -0.377613 0.152443 0.001549
v -0.379774 -0.139179 0.185310
v -0.379774 0.146860 0.185310
v -0.378636 -0.139179 0.177591
v -0.378636 0.146860 0.177591
v -0.376359 -0.139179 0.177591
v -0.376359 0.146860 0.177591
v -0.375221 -0.139179 0.185310
v -0.375221 0.146860 0.185310
v -0.376359 -0.139179 0.193029
v -0.376359 0.146860 0.193029
v -0.378636 -0.139179 0.193029
v -0.378636 0.146860 0.193029
v -0.381301 -0.140908 0.000000
v -0.381301 -0.140908 0.020036
v -0.379277 -0.132614 0.000000
v -0.379277 -0.132614 0.020036
v -0.375228 -0.132614 0.000000
v -0.375228 -0.132614 0.020036
v -0.373204 -0.140908 0.000000
v -0.373204 -0.140908 0.020036
v -0.375228 -0.149201 0.000000
v -0.375228 -0.149201 0.020036
v -0.379277 -0.149201 0.000000
v -0.379277 -0.149201 0.020036
v -0.381301 0.147024 0.000000
v -0.381301 0.147024 0.020036
v -0.379277 0.155318 0.000000
v -0.379277 0.155318 0.020036
v -0.375228 0.155318 0.000000
v -0.375228 0.155318 0.020036
v -0.373204 0.147024 0.000000
v -0.373204 0.147024 0.020036
v -0.375228 0.138731 0.000000
v -0.375228 0.138731 0.020036
v -0.379277 0.138731 0.000000
v -0.379277 0.138731 0.020036
v -0.381396 -0.025466 0.664665
v -0.381396 -0.025466 0.684701
v -0.379372 -0.017172 0.664665
v -0.379372 -0.017172 0.684701
v -0.375324 -0.017172 0.664665
v -0.375324 -0.017172 0.684701
v -0.373299 -0.025466 0.664665
v -0.373299 -0.025466 0.684701
v -0.375324 -0.033759 0.664665
v -0.375324 -0.033759 0.684701
v -0.379372 -0.033759 0.664665
v -0.379372 -0.033759 0.684701
v -0.381396 0.030609 0.664665
v -0.381396 0.030609 0.684701
v -0.379372 0.038902 0.664665
v -0.379372 0.038902 0.684701
v -0.375324 0.038902 0.664665
v -0.375324 0.038902 0.684701
v -0.373299 0.030609 0.664665
v -0.373299 0.030609 0.684701
v -0.375324 0.022315 0.664665
v -0.375324 0.022315 0.684701
v -0.379372 0.022315 0.664665
v -0.379372 0.022315 0.684701
v 0.320994 -0.008685 0.553876
v 0.320994 -0.008685 0.564711
v 0.320979 0.012027 0.553876
v 0.320979 0.012027 0.564711
v 0.010081 -0.008942 0.682122
v 0.010081 -0.008942 0.692957
v 0.010065 0.011770 0.682122
v 0.010065 0.011770 0.692957
v 0.366351 -0.022592 0.553876
v 0.366351 -0.022592 0.561878
v 0.366435 -0.020979 0.553876
v 0.366435 -0.020979 0.561878
v 0.314836 -0.005640 0.553876
v 0.314836 -0.005640 0.561878
v 0.320857 -0.004027 0.553876
v 0.320857 -0.004027 0.561878
v 0.366248 0.029187 0.553876
v 0.366248 0.029187 0.561878
v 0.366277 0.027623 0.553876
v 0.366277 0.027623 0.561878
v 0.314825 0.009628 0.553876
v 0.314825 0.009628 0.561878
v 0.320848 0.008065 0.553876
v 0.320848 0.008065 0.561878
v 0.320117 -0.012538 0.551003
v 0.320117 -0.012538 0.565845
v 0.320096 0.015873 0.551003
v 0.320096 0.015873 0.565845
v 0.313239 -0.010123 0.554277
v 0.313239 -0.010123 0.569589
v 0.313219 0.013576 0.554277
v 0.313219 0.013576 0.569589
v -0.331502 -0.008685 0.553876
v -0.331502 -0.008685 0.564711
v -0.331487 0.012027 0.553876
v -0.331487 0.012027 0.564711
v -0.020589 -0.008942 0.682122
v -0.020589 -0.008942 0.692957
v -0.020574 0.011770 0.682122
v -0.020574 0.011770 0.692957
v -0.376859 -0.022592 0.553875
v -0.376859 -0.022592 0.561877
v -0.376943 -0.020979 0.553875
v -0.376943 -0.020979 0.561877
v -0.325344 -0.005640 0.553875
v -0.325344 -0.005640 0.561877
v -0.331365 -0.004027 0.553875
v -0.331365 -0.004027 0.561877
v -0.376756 0.029187 0.553875
v -0.376756 0.029187 0.561877
v -0.376785 0.027623 0.553875
v -0.376785 0.027623 0.561877
v -0.325333 0.009629 0.553875
v -0.325333 0.009629 0.561877
v -0.331356 0.008065 0.553875
v -0.331356 0.008065 0.561877
v -0.330625 -0.012538 0.551003
v -0.330605 0.015873 0.551003
v -0.323748 -0.010123 0.554276
v -0.323727 0.013576 0.554276
v -0.323727 0.013576 0.569588
v -0.330625 -0.012538 0.565844
v -0.330605 0.015873 0.565844
v -0.323748 -0.010123 0.569588
v -0.400640 -0.298221 0.760000
v -0.400640 0.297443 0.760000
v -0.449052 -0.185618 0.759731
v -0.449248 0.183574 0.759731
v -0.420674 -0.285619 0.759573
v -0.420674 0.287259 0.759573
v -0.438710 -0.252411 0.759493
v -0.438555 0.253235 0.759493
v 0.400471 -0.296902 0.760000
v 0.400471 0.298221 0.760000
v 0.448834 -0.185618 0.759731
v 0.449248 0.183411 0.759731
v 0.420506 -0.285619 0.759574
v 0.420506 0.287259 0.759574
v 0.438809 -0.252269 0.759494
v 0.438889 0.252855 0.759494
v -0.400640 0.297443 0.757165
v -0.400512 -0.296979 0.757167
v -0.420414 -0.284538 0.756742
v -0.420414 0.286178 0.756742
v -0.438710 -0.252411 0.756659
v -0.438137 0.252386 0.756654
v 0.400471 0.298221 0.757165
v 0.400471 -0.296902 0.757165
v 0.420506 -0.285619 0.756739
v 0.420246 0.286177 0.756742
v 0.438809 -0.252269 0.756659
v 0.438472 0.252007 0.756655
v -0.448723 0.183318 0.756887
v -0.448526 -0.185362 0.756887
v 0.448723 0.183154 0.756887
v 0.448309 -0.185362 0.756887
v -0.449248 0.183574 0.756896
v -0.449052 -0.185618 0.756896
v -0.438292 -0.251562 0.756654
v -0.420674 0.287259 0.756738
v -0.400512 0.296200 0.757167
v -0.400640 -0.298221 0.757165
v -0.420674 -0.285619 0.756738
v -0.438555 0.253235 0.756659
v 0.449248 0.183411 0.756897
v 0.448834 -0.185618 0.756897
v 0.438391 -0.251421 0.756655
v 0.420506 0.287259 0.756739
v 0.400344 0.296979 0.757168
v 0.400344 -0.295659 0.757168
v 0.420246 -0.284538 0.756742
v 0.438889 0.252855 0.756659
v -0.450000 0.183941 0.758665
v -0.449724 0.183807 0.759740
v -0.449528 -0.185851 0.759740
v -0.449803 -0.185985 0.758665
v -0.439088 -0.253180 0.759497
v -0.439307 -0.253625 0.758420
v -0.420910 0.288238 0.759570
v -0.421047 0.288806 0.758489
v -0.400823 0.299221 0.758916
v -0.400756 0.298569 0.759997
v -0.400756 -0.299347 0.759997
v -0.400822 -0.300000 0.758916
v -0.421047 -0.287166 0.758489
v -0.420910 -0.286598 0.759570
v -0.438933 0.254003 0.759497
v -0.439152 0.254449 0.758420
v 0.449724 0.183643 0.759740
v 0.450000 0.183778 0.758665
v 0.449586 -0.185985 0.758665
v 0.449310 -0.185851 0.759740
v 0.439406 -0.253484 0.758420
v 0.439187 -0.253038 0.759498
v 0.420878 0.288806 0.758489
v 0.420741 0.288238 0.759571
v 0.400587 0.299347 0.759998
v 0.400654 0.300000 0.758916
v 0.400654 -0.298681 0.758916
v 0.400587 -0.298028 0.759998
v 0.420741 -0.286598 0.759571
v 0.420878 -0.287166 0.758489
v 0.439487 0.254069 0.758420
v 0.439268 0.253624 0.759498
v -0.400822 -0.300000 0.686368
v -0.400823 -0.298393 0.684154
v -0.400823 0.297615 0.684154
v -0.400823 0.299221 0.686368
v -0.449803 -0.185985 0.685973
v -0.449238 -0.187373 0.683752
v -0.449435 0.185329 0.683752
v -0.450000 0.183941 0.685973
v -0.421047 0.288806 0.685889
v -0.421047 0.287181 0.683676
v -0.421047 -0.285541 0.683676
v -0.421047 -0.287166 0.685889
v -0.439307 -0.253625 0.685809
v -0.439307 -0.251974 0.683595
v -0.439152 0.254449 0.685809
v -0.439152 0.252798 0.683595
v 0.400654 -0.297074 0.684155
v 0.400654 -0.298681 0.686368
v 0.400654 0.300000 0.686368
v 0.400654 0.298393 0.684155
v 0.449021 -0.187373 0.683753
v 0.449586 -0.185985 0.685973
v 0.450000 0.183778 0.685973
v 0.449435 0.185165 0.683753
v 0.420878 0.287181 0.683676
v 0.420878 0.288806 0.685889
v 0.420878 -0.287166 0.685889
v 0.420878 -0.285542 0.683676
v 0.439406 -0.251833 0.683596
v 0.439406 -0.253484 0.685809
v 0.439487 0.252419 0.683596
v 0.439487 0.254069 0.685809
vn -1.0000 0.0002 -0.0000
vn 0.0005 1.0000 -0.0000
vn 1.0000 -0.0002 -0.0000
vn -0.0005 -1.0000 -0.0000
vn 0.0190 -0.0000 -0.9998
vn 0.9456 0.3251 0.0120
vn 0.9549 -0.2967 -0.0128
vn 0.9549 -0.2967 0.0095
vn 0.9456 0.3249 -0.0139
vn -0.0024 0.9992 0.0397
vn -0.0005 0.9993 -0.0369
vn -0.9458 0.3244 0.0138
vn -0.9460 0.3241 -0.0106
vn -0.9550 -0.2964 -0.0109
vn -0.9546 -0.2977 0.0120
vn -0.0021 -0.9992 -0.0399
vn 0.0012 -0.9993 0.0367
vn 0.9464 0.3168 -0.0626
vn -0.0031 0.9735 -0.2286
vn -0.9474 0.3148 -0.0578
vn -0.9585 -0.2773 0.0667
vn 0.0025 -0.9825 0.1864
vn 0.9595 -0.2746 0.0627
vn 0.0041 -0.9371 0.3492
vn 0.9620 -0.2535 0.1013
vn 0.9532 0.2828 -0.1070
vn -0.0046 0.9269 -0.3752
vn -0.9548 0.2793 -0.1021
vn -0.9605 -0.2573 0.1059
vn 0.9639 -0.2362 0.1229
vn 0.9577 0.2571 -0.1290
vn -0.0053 0.8857 -0.4642
vn -0.9596 0.2523 -0.1245
vn -0.9621 -0.2409 0.1274
vn 0.0049 -0.8950 0.4460
vn 0.0053 -0.8677 0.4971
vn 0.9642 -0.2294 0.1330
vn 0.9609 0.2400 -0.1379
vn -0.0055 0.8644 -0.5028
vn -0.9629 0.2344 -0.1338
vn -0.9623 -0.2349 0.1371
vn 0.0054 -0.8624 0.5063
vn 0.9634 -0.2318 0.1348
vn 0.9621 0.2350 -0.1380
vn -0.0056 0.8643 -0.5030
vn -0.9641 0.2289 -0.1344
vn -0.9614 -0.2379 0.1385
vn 0.0055 -0.8830 0.4694
vn 0.9595 -0.2518 0.1260
vn 0.9625 0.2396 -0.1272
vn -0.0059 0.8942 -0.4477
vn -0.9645 0.2330 -0.1241
vn -0.9573 -0.2585 0.1292
vn 0.9534 -0.2855 0.0979
vn 0.9606 0.2594 -0.0998
vn -0.0064 0.9461 -0.3238
vn -0.9628 0.2520 -0.0976
vn -0.9508 -0.2933 0.1000
vn 0.0056 -0.9330 0.3599
vn 0.0061 -0.9816 0.1906
vn 0.9485 -0.3124 0.0519
vn 0.9565 0.2864 -0.0552
vn -0.0068 0.9867 -0.1625
vn -0.9590 0.2781 -0.0543
vn -0.9456 -0.3211 0.0527
vn 0.0067 -0.9990 0.0451
vn 0.9494 -0.3139 0.0140
vn 0.9516 0.3071 -0.0135
vn -0.0069 0.9990 -0.0434
vn -0.9544 0.2982 -0.0136
vn -0.9463 -0.3229 0.0139
vn 0.0069 -1.0000 0.0002
vn 0.9519 -0.3064 0.0002
vn 0.9490 0.3154 0.0001
vn -0.0068 1.0000 -0.0001
vn -0.9519 0.3064 -0.0002
vn -0.9489 -0.3155 -0.0001
vn 0.9456 -0.3251 0.0120
vn 0.9456 -0.3249 -0.0139
vn 0.9549 0.2967 0.0095
vn 0.9549 0.2967 -0.0128
vn -0.0024 -0.9992 0.0397
vn -0.0005 -0.9993 -0.0369
vn -0.9458 -0.3244 0.0138
vn -0.9460 -0.3241 -0.0106
vn -0.9550 0.2964 -0.0109
vn -0.9546 0.2977 0.0120
vn -0.0021 0.9992 -0.0399
vn 0.0012 0.9993 0.0367
vn -0.0031 -0.9735 -0.2286
vn 0.9464 -0.3168 -0.0626
vn -0.9474 -0.3148 -0.0578
vn -0.9585 0.2773 0.0667
vn 0.0025 0.9825 0.1864
vn 0.9595 0.2746 0.0627
vn 0.9620 0.2535 0.1013
vn 0.0041 0.9371 0.3492
vn 0.9532 -0.2828 -0.1070
vn -0.0046 -0.9269 -0.3752
vn -0.9548 -0.2793 -0.1021
vn -0.9605 0.2573 0.1059
vn 0.9577 -0.2571 -0.1290
vn 0.9639 0.2362 0.1229
vn -0.0053 -0.8857 -0.4642
vn -0.9596 -0.2523 -0.1245
vn -0.9621 0.2409 0.1274
vn 0.0049 0.8950 0.4460
vn 0.9642 0.2294 0.1330
vn 0.0053 0.8677 0.4970
vn 0.9609 -0.2400 -0.1379
vn -0.0055 -0.8644 -0.5028
vn -0.9629 -0.2344 -0.1338
vn -0.9623 0.2349 0.1371
vn 0.9634 0.2318 0.1348
vn 0.0054 0.8624 0.5063
vn 0.9621 -0.2350 -0.1380
vn -0.0056 -0.8643 -0.5030
vn -0.9641 -0.2289 -0.1344
vn -0.9614 0.2379 0.1385
vn 0.9595 0.2518 0.1260
vn 0.0055 0.8830 0.4694
vn 0.9625 -0.2396 -0.1272
vn -0.0059 -0.8942 -0.4477
vn -0.9645 -0.2330 -0.1241
vn -0.9573 0.2585 0.1292
vn 0.9606 -0.2594 -0.0998
vn 0.9534 0.2855 0.0979
vn -0.0064 -0.9461 -0.3238
vn -0.9628 -0.2520 -0.0976
vn -0.9508 0.2933 0.1000
vn 0.0056 0.9330 0.3599
vn 0.9485 0.3124 0.0519
vn 0.0061 0.9816 0.1906
vn 0.9565 -0.2864 -0.0552
vn -0.0068 -0.9867 -0.1625
vn -0.9590 -0.2781 -0.0543
vn -0.9456 0.3211 0.0527
vn 0.9494 0.3139 0.0140
vn 0.0067 0.9990 0.0451
vn 0.9516 -0.3071 -0.0135
vn -0.0069 -0.9990 -0.0434
vn -0.9544 -0.2982 -0.0136
vn -0.9463 0.3229 0.0139
vn 0.9519 0.3064 0.0002
vn 0.0069 1.0000 0.0002
vn 0.9490 -0.3154 0.0001
vn -0.0068 -1.0000 -0.0001
vn -0.9519 -0.3064 -0.0002
vn -0.9489 0.3155 -0.0001
vn 1.0000 -0.0000 -0.0000
vn 0.6535 -0.0000 -0.7569
vn -0.6535 -0.0000 -0.7569
vn -1.0000 -0.0000 -0.0000
vn -0.6535 -0.0000 0.7569
vn 0.6535 -0.0000 0.7569
vn 0.7535 -0.0000 -0.6574
vn 0.4982 0.6344 -0.5910
vn 0.4982 0.6344 0.5910
vn 0.7535 -0.0000 0.6574
vn -0.4982 0.6344 -0.5910
vn -0.4982 0.6344 0.5910
vn -0.7535 -0.0000 -0.6574
vn -0.7535 -0.0000 0.6574
vn -0.4982 -0.6344 -0.5910
vn -0.4982 -0.6344 0.5910
vn 0.4982 -0.6344 0.5910
vn 0.4982 -0.6344 -0.5910
vn 0.6176 0.7865 -0.0000
vn -0.6176 0.7865 -0.0000
vn -0.6176 -0.7865 -0.0000
vn 0.6176 -0.7865 -0.0000
vn -0.9456 0.3251 0.0120
vn -0.9456 0.3249 -0.0139
vn -0.9549 -0.2967 0.0095
vn -0.9549 -0.2967 -0.0128
vn 0.0024 0.9992 0.0397
vn 0.0005 0.9993 -0.0369
vn 0.9458 0.3244 0.0138
vn 0.9460 0.3241 -0.0106
vn 0.9550 -0.2964 -0.0109
vn 0.9546 -0.2977 0.0120
vn 0.0021 -0.9992 -0.0399
vn -0.0012 -0.9993 0.0367
vn 0.0031 0.9735 -0.2286
vn -0.9464 0.3168 -0.0626
vn 0.9474 0.3148 -0.0578
vn 0.9585 -0.2773 0.0667
vn -0.0025 -0.9825 0.1864
vn -0.9595 -0.2746 0.0627
vn -0.9620 -0.2535 0.1013
vn -0.0041 -0.9371 0.3491
vn -0.9532 0.2828 -0.1070
vn 0.0046 0.9269 -0.3752
vn 0.9548 0.2793 -0.1021
vn 0.9605 -0.2573 0.1059
vn -0.9577 0.2571 -0.1290
vn -0.9639 -0.2362 0.1230
vn 0.0053 0.8857 -0.4642
vn 0.9596 0.2523 -0.1245
vn 0.9621 -0.2409 0.1274
vn -0.0049 -0.8950 0.4460
vn -0.9642 -0.2294 0.1330
vn -0.0053 -0.8677 0.4970
vn -0.9609 0.2400 -0.1379
vn 0.0055 0.8644 -0.5028
vn 0.9629 0.2344 -0.1338
vn 0.9623 -0.2349 0.1371
vn -0.9634 -0.2318 0.1348
vn -0.0054 -0.8624 0.5063
vn -0.9621 0.2350 -0.1380
vn 0.0056 0.8643 -0.5030
vn 0.9641 0.2289 -0.1344
vn 0.9614 -0.2379 0.1385
vn -0.9595 -0.2518 0.1260
vn -0.0055 -0.8830 0.4694
vn -0.9625 0.2396 -0.1272
vn 0.0059 0.8942 -0.4477
vn 0.9645 0.2329 -0.1241
vn 0.9573 -0.2585 0.1292
vn -0.9606 0.2595 -0.0998
vn -0.9534 -0.2855 0.0979
vn 0.0064 0.9461 -0.3238
vn 0.9628 0.2520 -0.0976
vn 0.9508 -0.2933 0.1000
vn -0.0056 -0.9330 0.3599
vn -0.9485 -0.3124 0.0519
vn -0.0061 -0.9816 0.1906
vn -0.9565 0.2864 -0.0552
vn 0.0069 0.9867 -0.1625
vn 0.9590 0.2780 -0.0543
vn 0.9456 -0.3211 0.0527
vn -0.9494 -0.3139 0.0140
vn -0.0067 -0.9990 0.0451
vn -0.9516 0.3071 -0.0135
vn 0.0069 0.9990 -0.0434
vn 0.9544 0.2982 -0.0136
vn 0.9463 -0.3229 0.0139
vn -0.9519 -0.3064 0.0002
vn -0.0069 -1.0000 0.0002
vn -0.9490 0.3154 0.0001
vn 0.0068 1.0000 -0.0001
vn 0.9519 0.3064 -0.0002
vn 0.9489 -0.3155 -0.0001
vn -0.9456 -0.3251 0.0120
vn -0.9549 0.2967 -0.0128
vn -0.9549 0.2967 0.0095
vn -0.9456 -0.3249 -0.0139
vn 0.0024 -0.9992 0.0397
vn 0.0005 -0.9993 -0.0369
vn 0.9458 -0.3244 0.0138
vn 0.9460 -0.3241 -0.0106
vn 0.9550 0.2964 -0.0109
vn 0.9546 0.2977 0.0120
vn 0.0021 0.9992 -0.0399
vn -0.0012 0.9993 0.0367
vn -0.9464 -0.3168 -0.0626
vn 0.0031 -0.9735 -0.2286
vn 0.9474 -0.3148 -0.0578
vn 0.9585 0.2773 0.0667
vn -0.0025 0.9825 0.1864
vn -0.9595 0.2746 0.0627
vn -0.0041 0.9371 0.3491
vn -0.9620 0.2535 0.1013
vn -0.9532 -0.2828 -0.1070
vn 0.0046 -0.9269 -0.3752
vn 0.9548 -0.2793 -0.1021
vn 0.9605 0.2573 0.1059
vn -0.9639 0.2362 0.1229
vn -0.9577 -0.2571 -0.1290
vn 0.0053 -0.8857 -0.4642
vn 0.9596 -0.2523 -0.1245
vn 0.9621 0.2409 0.1274
vn -0.0049 0.8950 0.4460
vn -0.0053 0.8677 0.4970
vn -0.9642 0.2294 0.1330
vn -0.9609 -0.2400 -0.1379
vn 0.0055 -0.8644 -0.5028
vn 0.9629 -0.2344 -0.1338
vn 0.9623 0.2349 0.1371
vn -0.0054 0.8624 0.5063
vn -0.9634 0.2319 0.1348
vn -0.9621 -0.2350 -0.1380
vn 0.0056 -0.8643 -0.5030
vn 0.9641 -0.2289 -0.1344
vn 0.9614 0.2379 0.1385
vn -0.0055 0.8830 0.4694
vn -0.9595 0.2518 0.1260
vn -0.9625 -0.2396 -0.1272
vn 0.0059 -0.8942 -0.4477
vn 0.9645 -0.2330 -0.1241
vn 0.9573 0.2585 0.1292
vn -0.9534 0.2855 0.0979
vn -0.9606 -0.2594 -0.0998
vn 0.0064 -0.9461 -0.3238
vn 0.9628 -0.2520 -0.0976
vn 0.9508 0.2933 0.1000
vn -0.0056 0.9330 0.3599
vn -0.0061 0.9816 0.1906
vn -0.9485 0.3124 0.0519
vn -0.9565 -0.2864 -0.0552
vn 0.0068 -0.9867 -0.1625
vn 0.9590 -0.2780 -0.0543
vn 0.9456 0.3211 0.0527
vn -0.0067 0.9990 0.0451
vn -0.9494 0.3139 0.0140
vn -0.9516 -0.3071 -0.0135
vn 0.0069 -0.9990 -0.0434
vn 0.9544 -0.2982 -0.0136
vn 0.9463 0.3229 0.0139
vn -0.0069 1.0000 0.0002
vn -0.9519 0.3064 0.0002
vn -0.9490 -0.3154 0.0001
vn 0.0068 -1.0000 -0.0001
vn 0.9519 -0.3064 -0.0002
vn 0.9489 0.3155 -0.0001
vn 1.0000 0.0007 -0.0000
vn -0.0008 1.0000 -0.0000
vn 0.0008 -1.0000 -0.0000
vn -0.3813 -0.0003 -0.9244
vn 0.3813 0.0003 0.9244
vn 0.3486 0.9373 -0.0000
vn -0.3126 -0.9499 -0.0000
vn -0.0000 -0.0000 -1.0000
vn -0.0000 -0.0000 1.0000
vn 0.3954 -0.9185 -0.0000
vn -0.3555 0.9347 -0.0000
vn -0.3168 0.9485 -0.0000
vn -1.0000 -0.0009 -0.0000
vn -0.3313 -0.9435 -0.0000
vn -0.4298 -0.0003 -0.9029
vn 0.4782 0.0004 0.8783
vn -1.0000 0.0007 -0.0000
vn 0.0008 1.0000 -0.0000
vn -0.0008 -1.0000 -0.0000
vn 0.3813 -0.0003 -0.9244
vn -0.3813 0.0003 0.9244
vn -0.3486 0.9373 -0.0000
vn 0.3126 -0.9499 -0.0000
vn -0.3954 -0.9185 -0.0000
vn 0.3555 0.9347 -0.0000
vn 0.3168 0.9485 -0.0000
vn 1.0000 -0.0009 -0.0000
vn 0.3313 -0.9435 -0.0000
vn 0.4298 -0.0003 -0.9029
vn -0.4782 0.0004 0.8783
vn 0.1644 0.6059 0.7784
vn -0.1720 -0.5317 0.8293
vn 0.1567 -0.5305 0.8331
vn -0.1528 0.6173 0.7717
vn 0.6934 -0.0514 0.7187
vn 0.7273 -0.0541 0.6842
vn 0.7035 -0.2319 0.6718
vn 0.6380 -0.2070 0.7417
vn -0.6049 0.1776 0.7762
vn -0.6203 0.0455 0.7830
vn -0.9312 0.3385 -0.1356
vn -0.9924 0.0623 -0.1057
vn -0.9887 0.0779 0.1279
vn -0.9334 0.3234 0.1557
vn 0.6933 0.0522 0.7187
vn -0.6202 -0.0463 0.7831
vn -0.6042 -0.1816 0.7759
vn 0.6349 0.2111 0.7432
vn -0.9306 -0.3306 0.1570
vn -0.9886 -0.0791 0.1280
vn -0.9924 -0.0634 -0.1057
vn -0.9280 -0.3461 -0.1383
vn -0.2651 -0.9303 0.2534
vn -0.7037 -0.6785 0.2109
vn -0.6876 -0.6862 -0.2372
vn -0.2545 -0.9237 -0.2862
vn 0.4620 0.4416 0.7691
vn -0.4656 -0.3867 0.7960
vn 0.4325 -0.4479 0.7825
vn -0.4577 0.4046 0.7917
vn -0.6363 -0.2073 0.7431
vn -0.7042 -0.2331 0.6707
vn -0.7271 -0.0523 0.6846
vn -0.6939 -0.0498 0.7183
vn 0.1411 -0.6267 0.7664
vn -0.1427 0.5295 0.8362
vn -0.2162 0.9323 -0.2901
vn -0.2264 0.9399 0.2556
vn 0.2389 0.9370 0.2549
vn 0.2285 0.9297 -0.2888
vn 0.5439 0.5187 0.6596
vn 0.7028 0.2375 0.6706
vn 0.2350 -0.9282 -0.2883
vn 0.2454 -0.9354 0.2545
vn -0.6337 0.2108 0.7443
vn -0.7035 0.2377 0.6697
vn -0.5326 0.5355 0.6555
vn -0.4450 0.4492 0.7747
vn 0.5294 -0.5452 0.6499
vn -0.1487 -0.6199 0.7705
vn 0.1520 0.5306 0.8339
vn -0.6940 0.0510 0.7182
vn 0.6200 -0.0452 0.7833
vn 0.6203 0.0441 0.7831
vn 0.6058 0.1780 0.7755
vn 0.6051 -0.1814 0.7752
vn 0.9305 -0.3309 0.1572
vn 0.9276 -0.3467 -0.1391
vn 0.9925 -0.0620 -0.1057
vn 0.9888 -0.0772 0.1278
vn 0.6679 -0.7040 -0.2416
vn 0.6851 -0.6964 0.2135
vn 0.4574 -0.3984 0.7950
vn 0.4596 0.3991 0.7934
vn -0.4422 -0.4469 0.7777
vn -0.5337 -0.5370 0.6533
vn 0.6844 0.6971 0.2136
vn 0.6668 0.7049 -0.2417
vn 0.2063 0.7328 0.6485
vn -0.4556 -0.3737 -0.8079
vn -0.6471 -0.1713 -0.7430
vn -0.6478 0.1679 -0.7431
vn -0.4511 0.3881 -0.8037
vn -0.1562 -0.5011 -0.8512
vn -0.1249 0.4969 -0.8588
vn -0.6637 -0.0686 -0.7449
vn -0.6637 0.0678 -0.7449
vn 0.1397 -0.4988 -0.8554
vn 0.1349 0.4986 -0.8563
vn 0.4517 0.3837 -0.8055
vn 0.4480 -0.3834 -0.8077
vn 0.9302 0.3405 -0.1369
vn 0.9327 0.3250 0.1562
vn 0.9889 0.0755 0.1277
vn 0.9926 0.0602 -0.1057
vn 0.6485 0.1675 -0.7425
vn 0.6479 -0.1703 -0.7424
vn 0.6637 0.0657 -0.7451
vn 0.6635 -0.0667 -0.7452
vn -0.6575 0.7131 -0.2435
vn -0.6757 0.7052 0.2148
vn 0.0045 0.0002 1.0000
vn 0.0197 0.0002 0.9998
vn 0.0197 -0.0002 0.9998
vn 0.0045 -0.0002 1.0000
vn -0.0102 0.0003 0.9999
vn -0.0126 -0.0007 0.9999
vn -0.0126 0.0007 0.9999
vn -0.0101 -0.0003 0.9999
vn -0.0046 0.0002 1.0000
vn -0.0046 -0.0003 1.0000
vn -0.0200 -0.0002 0.9998
vn -0.0200 0.0002 0.9998
vn 0.0102 -0.0003 0.9999
vn 0.0102 0.0003 0.9999
vn 0.0126 0.0007 0.9999
vn 0.0126 -0.0007 0.9999
vn -0.1883 0.7334 0.6532
vn -0.7269 0.0535 0.6846
vn 0.7273 0.0549 0.6841
vn 0.1713 -0.7342 0.6570
vn -0.1826 -0.7341 0.6540
vt 0.889006 0.134602
vt 0.872013 0.134602
vt 0.872013 0.004393
vt 0.889006 0.004393
vt 0.889006 0.635715
vt 0.872013 0.635715
vt 0.871718 0.450264
vt 0.888106 0.450264
vt 0.871718 0.320054
vt 0.888106 0.320054
vt 0.661677 0.581548
vt 0.661677 0.767001
vt 0.531468 0.767094
vt 0.531468 0.581640
vt 0.538758 0.572762
vt 0.546048 0.572762
vt 0.546048 0.479975
vt 0.538758 0.479975
vt 0.531468 0.572762
vt 0.531468 0.479975
vt 0.567918 0.572762
vt 0.575208 0.572762
vt 0.575209 0.479975
vt 0.567918 0.479975
vt 0.560628 0.572762
vt 0.560628 0.479975
vt 0.553338 0.572762
vt 0.553338 0.479975
vt 0.538758 0.435851
vt 0.531468 0.435851
vt 0.575209 0.435851
vt 0.567918 0.435851
vt 0.560628 0.435851
vt 0.553338 0.435851
vt 0.546048 0.435851
vt 0.553338 0.420690
vt 0.546048 0.420690
vt 0.538758 0.420690
vt 0.531468 0.420690
vt 0.575209 0.420690
vt 0.567918 0.420690
vt 0.560628 0.420690
vt 0.546048 0.383251
vt 0.538758 0.383251
vt 0.531468 0.383251
vt 0.575208 0.383251
vt 0.567918 0.383251
vt 0.560628 0.383251
vt 0.553338 0.383251
vt 0.553338 0.359042
vt 0.546048 0.359042
vt 0.538758 0.359042
vt 0.531468 0.359042
vt 0.575209 0.359042
vt 0.567918 0.359042
vt 0.560628 0.359042
vt 0.553338 0.330062
vt 0.546048 0.330062
vt 0.538758 0.330062
vt 0.531468 0.330062
vt 0.575209 0.330062
vt 0.567918 0.330062
vt 0.560628 0.330062
vt 0.553338 0.300603
vt 0.546048 0.300603
vt 0.538758 0.300603
vt 0.531468 0.300603
vt 0.575209 0.300603
vt 0.567918 0.300603
vt 0.560628 0.300603
vt 0.546048 0.252050
vt 0.538758 0.252050
vt 0.531468 0.252050
vt 0.575209 0.252050
vt 0.567918 0.252050
vt 0.560628 0.252050
vt 0.553338 0.252050
vt 0.553338 0.210540
vt 0.546048 0.210540
vt 0.538758 0.210540
vt 0.531468 0.210540
vt 0.575209 0.210540
vt 0.567918 0.210540
vt 0.560628 0.210540
vt 0.553338 0.142634
vt 0.546048 0.142634
vt 0.538758 0.142634
vt 0.531468 0.142634
vt 0.575209 0.142634
vt 0.567918 0.142634
vt 0.560628 0.142634
vt 0.553338 0.004393
vt 0.546048 0.004393
vt 0.538758 0.004393
vt 0.531468 0.004393
vt 0.575209 0.004393
vt 0.567918 0.004393
vt 0.560628 0.004393
vt 0.643811 0.572762
vt 0.643811 0.479975
vt 0.651101 0.479975
vt 0.651101 0.572762
vt 0.636521 0.572762
vt 0.636521 0.479975
vt 0.672971 0.572762
vt 0.672971 0.479975
vt 0.680262 0.479975
vt 0.680262 0.572762
vt 0.665681 0.572762
vt 0.665681 0.479975
vt 0.658391 0.572762
vt 0.658391 0.479975
vt 0.636521 0.435851
vt 0.643811 0.435851
vt 0.672971 0.435851
vt 0.680262 0.435851
vt 0.665681 0.435851
vt 0.658391 0.435851
vt 0.651101 0.435851
vt 0.651101 0.420690
vt 0.658391 0.420690
vt 0.643811 0.420690
vt 0.636521 0.420690
vt 0.672971 0.420690
vt 0.680262 0.420690
vt 0.665681 0.420690
vt 0.643811 0.383251
vt 0.651101 0.383251
vt 0.636521 0.383251
vt 0.672971 0.383251
vt 0.680262 0.383251
vt 0.665681 0.383251
vt 0.658391 0.383251
vt 0.651101 0.359043
vt 0.658391 0.359043
vt 0.643811 0.359043
vt 0.636521 0.359043
vt 0.672971 0.359043
vt 0.680262 0.359043
vt 0.665681 0.359043
vt 0.651101 0.330062
vt 0.658391 0.330062
vt 0.643811 0.330062
vt 0.636521 0.330062
vt 0.672971 0.330062
vt 0.680262 0.330062
vt 0.665681 0.330062
vt 0.651101 0.300604
vt 0.658391 0.300604
vt 0.643811 0.300604
vt 0.636521 0.300604
vt 0.672971 0.300604
vt 0.680262 0.300604
vt 0.665681 0.300604
vt 0.643811 0.252050
vt 0.651101 0.252050
vt 0.636521 0.252050
vt 0.672971 0.252050
vt 0.680262 0.252050
vt 0.665681 0.252050
vt 0.658391 0.252050
vt 0.651101 0.210540
vt 0.658391 0.210540
vt 0.643811 0.210540
vt 0.636521 0.210540
vt 0.672971 0.210540
vt 0.680262 0.210540
vt 0.665681 0.210540
vt 0.651101 0.142634
vt 0.658391 0.142634
vt 0.643811 0.142634
vt 0.636521 0.142634
vt 0.672971 0.142634
vt 0.680262 0.142634
vt 0.665681 0.142634
vt 0.651101 0.004393
vt 0.658391 0.004393
vt 0.643811 0.004393
vt 0.636521 0.004393
vt 0.672972 0.004393
vt 0.680262 0.004393
vt 0.665681 0.004393
vt 0.463996 0.004393
vt 0.452259 0.004393
vt 0.452259 0.627668
vt 0.463996 0.627668
vt 0.522682 0.004393
vt 0.510945 0.004393
vt 0.510945 0.627668
vt 0.522682 0.627668
vt 0.499207 0.004393
vt 0.499207 0.627668
vt 0.487470 0.004393
vt 0.487470 0.627668
vt 0.475733 0.004393
vt 0.475733 0.627668
vt 0.373050 0.636454
vt 0.373050 0.666048
vt 0.461830 0.666048
vt 0.461830 0.636454
vt 0.373050 0.695641
vt 0.461830 0.695641
vt 0.373050 0.725234
vt 0.461830 0.725234
vt 0.373050 0.754828
vt 0.461830 0.754828
vt 0.078203 0.868243
vt 0.078203 0.825629
vt 0.041298 0.804321
vt 0.004393 0.825629
vt 0.004393 0.868243
vt 0.041298 0.889550
vt 0.373050 0.784421
vt 0.461830 0.784421
vt 0.373050 0.814015
vt 0.461830 0.814015
vt 0.531468 0.839801
vt 0.531468 0.797187
vt 0.568373 0.775879
vt 0.605278 0.797187
vt 0.605278 0.839801
vt 0.568373 0.861108
vt 0.759243 0.759108
vt 0.759243 0.729515
vt 0.670463 0.729515
vt 0.670463 0.759108
vt 0.759243 0.699921
vt 0.670463 0.699921
vt 0.759243 0.670328
vt 0.670463 0.670328
vt 0.759243 0.640734
vt 0.670463 0.640734
vt 0.138864 0.839490
vt 0.101959 0.860797
vt 0.101959 0.903412
vt 0.138864 0.924719
vt 0.175769 0.903412
vt 0.175769 0.860797
vt 0.759243 0.611141
vt 0.670463 0.611141
vt 0.759243 0.581548
vt 0.670463 0.581548
vt 0.175769 0.766782
vt 0.175769 0.809397
vt 0.138864 0.830704
vt 0.101959 0.809397
vt 0.101959 0.766782
vt 0.138864 0.745475
vt 0.507147 0.809831
vt 0.507147 0.780935
vt 0.470616 0.780935
vt 0.470616 0.809831
vt 0.507147 0.752039
vt 0.470616 0.752039
vt 0.507147 0.723143
vt 0.470616 0.723143
vt 0.507147 0.694246
vt 0.470616 0.694246
vt 0.507147 0.665350
vt 0.470616 0.665350
vt 0.507147 0.636454
vt 0.470616 0.636454
vt 0.531468 0.913238
vt 0.556492 0.927686
vt 0.581517 0.913238
vt 0.581517 0.884342
vt 0.556492 0.869894
vt 0.531468 0.884342
vt 0.826401 0.623441
vt 0.826401 0.652337
vt 0.862932 0.652337
vt 0.862932 0.623441
vt 0.826401 0.681233
vt 0.862932 0.681233
vt 0.826401 0.710129
vt 0.862932 0.710129
vt 0.826401 0.739025
vt 0.862932 0.739025
vt 0.826401 0.767922
vt 0.862932 0.767922
vt 0.826401 0.796818
vt 0.862932 0.796818
vt 0.779348 0.876356
vt 0.754323 0.861908
vt 0.729298 0.876356
vt 0.729298 0.905253
vt 0.754323 0.919701
vt 0.779348 0.905253
vt 0.591284 0.572762
vt 0.591284 0.479975
vt 0.598574 0.479975
vt 0.598574 0.572762
vt 0.583994 0.572762
vt 0.583994 0.479975
vt 0.620445 0.572762
vt 0.620445 0.479975
vt 0.627735 0.479975
vt 0.627735 0.572762
vt 0.613155 0.572762
vt 0.613155 0.479975
vt 0.605865 0.572762
vt 0.605865 0.479975
vt 0.583994 0.435851
vt 0.591284 0.435851
vt 0.620445 0.435851
vt 0.627735 0.435851
vt 0.613155 0.435851
vt 0.605865 0.435851
vt 0.598574 0.435851
vt 0.598574 0.420690
vt 0.605865 0.420690
vt 0.591284 0.420690
vt 0.583994 0.420690
vt 0.620445 0.420690
vt 0.627735 0.420690
vt 0.613155 0.420690
vt 0.591284 0.383251
vt 0.598574 0.383251
vt 0.583994 0.383251
vt 0.620445 0.383251
vt 0.627735 0.383251
vt 0.613155 0.383251
vt 0.605865 0.383251
vt 0.598574 0.359042
vt 0.605865 0.359042
vt 0.591284 0.359042
vt 0.583994 0.359042
vt 0.620445 0.359042
vt 0.627735 0.359042
vt 0.613155 0.359042
vt 0.598574 0.330062
vt 0.605865 0.330062
vt 0.591284 0.330062
vt 0.583994 0.330062
vt 0.620445 0.330062
vt 0.627735 0.330062
vt 0.613155 0.330062
vt 0.598574 0.300603
vt 0.605865 0.300603
vt 0.591284 0.300603
vt 0.583994 0.300603
vt 0.620445 0.300603
vt 0.627735 0.300603
vt 0.613155 0.300603
vt 0.591284 0.252050
vt 0.598574 0.252050
vt 0.583994 0.252050
vt 0.620445 0.252050
vt 0.627735 0.252050
vt 0.613155 0.252050
vt 0.605865 0.252050
vt 0.598574 0.210540
vt 0.605865 0.210540
vt 0.591284 0.210540
vt 0.583994 0.210540
vt 0.620445 0.210540
vt 0.627735 0.210540
vt 0.613155 0.210540
vt 0.598574 0.142634
vt 0.605865 0.142634
vt 0.591284 0.142634
vt 0.583994 0.142634
vt 0.620445 0.142634
vt 0.627735 0.142634
vt 0.613155 0.142634
vt 0.598575 0.004393
vt 0.605865 0.004393
vt 0.591284 0.004393
vt 0.583994 0.004393
vt 0.620445 0.004393
vt 0.627735 0.004393
vt 0.613155 0.004393
vt 0.696337 0.572762
vt 0.703628 0.572762
vt 0.703628 0.479975
vt 0.696337 0.479975
vt 0.689047 0.572762
vt 0.689047 0.479975
vt 0.725498 0.572762
vt 0.732788 0.572762
vt 0.732788 0.479975
vt 0.725498 0.479975
vt 0.718208 0.572762
vt 0.718208 0.479975
vt 0.710918 0.572762
vt 0.710918 0.479975
vt 0.696337 0.435851
vt 0.689047 0.435851
vt 0.732788 0.435851
vt 0.725498 0.435851
vt 0.718208 0.435851
vt 0.710918 0.435851
vt 0.703628 0.435851
vt 0.710918 0.420690
vt 0.703628 0.420690
vt 0.696337 0.420690
vt 0.689047 0.420690
vt 0.732788 0.420690
vt 0.725498 0.420690
vt 0.718208 0.420690
vt 0.703628 0.383251
vt 0.696337 0.383251
vt 0.689047 0.383251
vt 0.732788 0.383251
vt 0.725498 0.383251
vt 0.718208 0.383251
vt 0.710918 0.383251
vt 0.710918 0.359043
vt 0.703628 0.359043
vt 0.696337 0.359043
vt 0.689047 0.359043
vt 0.732788 0.359043
vt 0.725498 0.359043
vt 0.718208 0.359043
vt 0.710918 0.330062
vt 0.703628 0.330062
vt 0.696337 0.330062
vt 0.689047 0.330062
vt 0.732788 0.330062
vt 0.725498 0.330062
vt 0.718208 0.330062
vt 0.710918 0.300604
vt 0.703628 0.300604
vt 0.696337 0.300604
vt 0.689047 0.300604
vt 0.732788 0.300604
vt 0.725498 0.300604
vt 0.718208 0.300604
vt 0.703628 0.252050
vt 0.696337 0.252050
vt 0.689047 0.252050
vt 0.732788 0.252050
vt 0.725498 0.252050
vt 0.718208 0.252050
vt 0.710918 0.252050
vt 0.710918 0.210540
vt 0.703628 0.210540
vt 0.696337 0.210540
vt 0.689047 0.210540
vt 0.732788 0.210540
vt 0.725498 0.210540
vt 0.718208 0.210540
vt 0.710918 0.142634
vt 0.703628 0.142634
vt 0.696337 0.142634
vt 0.689047 0.142634
vt 0.732788 0.142634
vt 0.725498 0.142634
vt 0.718208 0.142634
vt 0.710918 0.004393
vt 0.703628 0.004393
vt 0.696337 0.004393
vt 0.689047 0.004393
vt 0.732788 0.004393
vt 0.725498 0.004393
vt 0.718208 0.004393
vt 0.384787 0.004393
vt 0.384787 0.627668
vt 0.373050 0.627668
vt 0.373050 0.004393
vt 0.443473 0.004393
vt 0.443473 0.627668
vt 0.431736 0.627668
vt 0.431736 0.004393
vt 0.419999 0.627668
vt 0.419999 0.004393
vt 0.408261 0.627668
vt 0.408261 0.004393
vt 0.396524 0.627668
vt 0.396524 0.004393
vt 0.004393 0.617975
vt 0.093173 0.617975
vt 0.093173 0.647569
vt 0.004393 0.647569
vt 0.093173 0.677162
vt 0.004393 0.677162
vt 0.093173 0.706756
vt 0.004393 0.706756
vt 0.093173 0.736349
vt 0.004393 0.736349
vt 0.446860 0.886722
vt 0.409955 0.908029
vt 0.373050 0.886722
vt 0.373050 0.844107
vt 0.409955 0.822800
vt 0.446860 0.844107
vt 0.093173 0.765942
vt 0.004393 0.765942
vt 0.093173 0.795536
vt 0.004393 0.795536
vt 0.188751 0.867948
vt 0.225657 0.889256
vt 0.262562 0.867948
vt 0.262562 0.825334
vt 0.225657 0.804027
vt 0.188751 0.825334
vt 0.277532 0.795241
vt 0.188751 0.795241
vt 0.188751 0.765648
vt 0.277532 0.765648
vt 0.188751 0.736054
vt 0.277532 0.736054
vt 0.188751 0.706461
vt 0.277532 0.706461
vt 0.188751 0.676867
vt 0.277532 0.676867
vt 0.826027 0.805603
vt 0.862932 0.826911
vt 0.862932 0.869525
vt 0.826027 0.890832
vt 0.789122 0.869525
vt 0.789122 0.826911
vt 0.188751 0.647274
vt 0.277532 0.647274
vt 0.188751 0.617680
vt 0.277532 0.617680
vt 0.744274 0.789201
vt 0.707368 0.767894
vt 0.670463 0.789201
vt 0.670463 0.831816
vt 0.707368 0.853123
vt 0.744274 0.831816
vt 0.804560 0.754925
vt 0.768029 0.754925
vt 0.768029 0.726028
vt 0.804560 0.726028
vt 0.768029 0.697132
vt 0.804560 0.697132
vt 0.768029 0.668236
vt 0.804560 0.668236
vt 0.768029 0.639340
vt 0.804560 0.639340
vt 0.768029 0.610444
vt 0.804560 0.610444
vt 0.768029 0.581548
vt 0.804560 0.581548
vt 0.871718 0.870007
vt 0.871718 0.841111
vt 0.896742 0.826663
vt 0.921767 0.841111
vt 0.921767 0.870007
vt 0.896743 0.884455
vt 0.871718 0.644501
vt 0.908249 0.644501
vt 0.908249 0.673397
vt 0.871718 0.673397
vt 0.908249 0.702293
vt 0.871718 0.702293
vt 0.908249 0.731189
vt 0.871718 0.731189
vt 0.908249 0.760085
vt 0.871718 0.760085
vt 0.908249 0.788981
vt 0.871718 0.788981
vt 0.908249 0.817877
vt 0.871718 0.817877
vt 0.720513 0.876356
vt 0.720513 0.905253
vt 0.695488 0.919701
vt 0.670463 0.905253
vt 0.670463 0.876356
vt 0.695488 0.861908
vt 0.515006 0.907397
vt 0.515006 0.863007
vt 0.470616 0.863007
vt 0.470616 0.907397
vt 0.515006 0.818617
vt 0.470616 0.818617
vt 0.575858 0.936472
vt 0.531468 0.936472
vt 0.531468 0.980862
vt 0.575858 0.980862
vt 0.930553 0.826663
vt 0.930553 0.871053
vt 0.974943 0.871053
vt 0.974943 0.826663
vt 0.048783 0.942726
vt 0.048783 0.898336
vt 0.004393 0.898336
vt 0.004393 0.942726
vt 0.871718 0.937631
vt 0.916108 0.937631
vt 0.916108 0.893241
vt 0.871718 0.893241
vt 0.188751 0.951217
vt 0.188751 0.995607
vt 0.233141 0.995607
vt 0.233141 0.951217
vt 0.417440 0.916815
vt 0.373050 0.916815
vt 0.373050 0.961205
vt 0.417440 0.961205
vt 0.961424 0.742067
vt 0.961424 0.697676
vt 0.917034 0.697676
vt 0.917034 0.742066
vt 0.969284 0.937631
vt 0.924894 0.937631
vt 0.924894 0.893241
vt 0.969284 0.893241
vt 0.658454 0.971011
vt 0.614064 0.971011
vt 0.614064 0.926621
vt 0.658454 0.926621
vt 0.658454 0.873445
vt 0.658454 0.917835
vt 0.614064 0.917835
vt 0.614064 0.873445
vt 0.773688 0.972876
vt 0.729298 0.972876
vt 0.729298 0.928486
vt 0.773688 0.928486
vt 0.791624 0.301438
vt 0.791624 0.432158
vt 0.832888 0.432158
vt 0.832888 0.301438
vt 0.791624 0.004393
vt 0.791624 0.087555
vt 0.832888 0.087555
vt 0.832888 0.004393
vt 0.791624 0.218275
vt 0.832888 0.218275
vt 0.810071 0.559658
vt 0.810071 0.440944
vt 0.741608 0.451152
vt 0.741574 0.550178
vt 0.286317 0.627160
vt 0.286351 0.726186
vt 0.354968 0.736395
vt 0.354968 0.617680
vt 0.658454 0.864660
vt 0.614064 0.864660
vt 0.614064 0.820269
vt 0.658454 0.820269
vt 0.614064 0.775879
vt 0.658454 0.775879
vt 0.969284 0.946417
vt 0.969284 0.990807
vt 0.924893 0.990807
vt 0.924893 0.946417
vt 0.101959 0.933504
vt 0.146349 0.933504
vt 0.146349 0.977895
vt 0.101959 0.977895
vt 0.833512 0.944008
vt 0.789122 0.944008
vt 0.789122 0.899618
vt 0.833512 0.899618
vt 0.188752 0.942431
vt 0.188752 0.898041
vt 0.233142 0.898041
vt 0.233142 0.942431
vt 0.871718 0.946417
vt 0.916108 0.946417
vt 0.916108 0.990807
vt 0.871718 0.990807
vt 0.961425 0.644501
vt 0.961425 0.688891
vt 0.917034 0.688891
vt 0.917034 0.644501
vt 0.515006 0.960573
vt 0.470616 0.960573
vt 0.470616 0.916183
vt 0.515006 0.916183
vt 0.961425 0.795242
vt 0.961425 0.750852
vt 0.917034 0.750852
vt 0.917034 0.795242
vt 0.330707 0.970246
vt 0.330707 0.925856
vt 0.286317 0.925856
vt 0.286317 0.970246
vt 0.330707 0.872680
vt 0.286317 0.872680
vt 0.286317 0.917070
vt 0.330707 0.917070
vt 0.714853 0.972876
vt 0.714853 0.928486
vt 0.670463 0.928486
vt 0.670463 0.972876
vt 0.741574 0.301438
vt 0.782838 0.301438
vt 0.782838 0.432158
vt 0.741574 0.432158
vt 0.741574 0.004393
vt 0.782838 0.004393
vt 0.782838 0.087555
vt 0.741574 0.087555
vt 0.782838 0.218275
vt 0.741574 0.218275
vt 0.354815 0.863894
vt 0.286317 0.854415
vt 0.286351 0.755389
vt 0.354815 0.745180
vt 0.101959 0.627455
vt 0.170610 0.617975
vt 0.170610 0.736690
vt 0.101993 0.726481
vt 0.862932 0.149504
vt 0.841674 0.149504
vt 0.841674 0.573240
vt 0.862932 0.573240
vt 0.955243 0.618568
vt 0.964519 0.618568
vt 0.964519 0.601026
vt 0.955243 0.601026
vt 0.973305 0.022015
vt 0.982255 0.022015
vt 0.982255 0.004393
vt 0.973305 0.004393
vt 0.927696 0.021722
vt 0.927696 0.004393
vt 0.918106 0.004393
vt 0.918106 0.021722
vt 0.862932 0.108089
vt 0.841674 0.108089
vt 0.841674 0.125520
vt 0.862932 0.125520
vt 0.946268 0.125810
vt 0.946268 0.108337
vt 0.937393 0.108337
vt 0.937393 0.125810
vt 0.946268 0.149851
vt 0.946268 0.137851
vt 0.937393 0.137851
vt 0.937393 0.149851
vt 0.862932 0.137532
vt 0.841674 0.137532
vt 0.973305 0.034160
vt 0.982255 0.034160
vt 0.955243 0.126296
vt 0.964520 0.126296
vt 0.964520 0.108754
vt 0.955243 0.108754
vt 0.973305 0.046264
vt 0.982255 0.046264
vt 0.927696 0.045567
vt 0.918106 0.045567
vt 0.918106 0.466842
vt 0.927696 0.466842
vt 0.897792 0.137604
vt 0.909116 0.137604
vt 0.909116 0.125585
vt 0.897792 0.125585
vt 0.937393 0.574602
vt 0.946268 0.574602
vt 0.897792 0.597546
vt 0.909116 0.597546
vt 0.909116 0.585527
vt 0.897792 0.585527
vt 0.964519 0.588936
vt 0.955243 0.588936
vt 0.973305 0.474664
vt 0.982254 0.474664
vt 0.973305 0.621373
vt 0.982255 0.621373
vt 0.982254 0.516535
vt 0.973305 0.516535
vt 0.982254 0.498913
vt 0.973305 0.498913
vt 0.862932 0.597225
vt 0.841674 0.597225
vt 0.841674 0.614655
vt 0.862932 0.614655
vt 0.946268 0.598644
vt 0.937393 0.598644
vt 0.937393 0.616117
vt 0.946268 0.616117
vt 0.937393 0.586603
vt 0.946268 0.586603
vt 0.841674 0.585212
vt 0.862932 0.585212
vt 0.982254 0.486768
vt 0.973305 0.486768
vt 0.955243 0.138386
vt 0.964520 0.138386
vt 0.918106 0.478744
vt 0.927696 0.478744
vt 0.897792 0.149583
vt 0.909116 0.149583
vt 0.937393 0.004393
vt 0.946268 0.004393
vt 0.172989 0.025782
vt 0.164898 0.012832
vt 0.019460 0.012832
vt 0.011370 0.025782
vt 0.179966 0.039283
vt 0.004393 0.039283
vt 0.145286 0.004393
vt 0.039072 0.004393
vt 0.179966 0.574300
vt 0.004393 0.574300
vt 0.011370 0.587800
vt 0.172989 0.587800
vt 0.862932 0.004393
vt 0.841674 0.004393
vt 0.927696 0.490687
vt 0.918106 0.490687
vt 0.918106 0.508016
vt 0.927696 0.508016
vt 0.918106 0.611110
vt 0.927696 0.611110
vt 0.019460 0.600750
vt 0.164898 0.600750
vt 0.039073 0.609190
vt 0.145286 0.609189
vt 0.927696 0.033665
vt 0.918106 0.033665
vt 0.203927 0.599900
vt 0.223988 0.608542
vt 0.329059 0.608544
vt 0.349120 0.599903
vt 0.189144 0.573923
vt 0.196004 0.587207
vt 0.357044 0.587210
vt 0.363904 0.573925
vt 0.203938 0.013384
vt 0.349131 0.013388
vt 0.329069 0.004746
vt 0.223999 0.004744
vt 0.363914 0.039366
vt 0.189153 0.039363
vt 0.357054 0.026081
vt 0.196014 0.026077
vt 0.897792 0.573549
vt 0.909116 0.573549
vt 0.964520 0.004393
vt 0.955243 0.004393
vt 0.897792 0.108145
vt 0.909116 0.108145
vt 0.909116 0.004393
vt 0.897792 0.004393
vt 0.955243 0.576887
vt 0.964520 0.576887
vt 0.964519 0.150434
vt 0.955243 0.150434
vt 0.897792 0.614986
vt 0.909116 0.614986
vt 0.223916 0.608893
vt 0.329131 0.608895
vt 0.349360 0.600182
vt 0.188793 0.574008
vt 0.195699 0.587381
vt 0.357349 0.587384
vt 0.364264 0.574013
vt 0.203687 0.600179
vt 0.329142 0.004395
vt 0.223927 0.004393
vt 0.349370 0.013109
vt 0.195709 0.025903
vt 0.188751 0.039265
vt 0.364264 0.039281
vt 0.357359 0.025908
vt 0.203698 0.013106
vt 0.946457 0.004393
vt 0.946457 0.108337
vt 0.946457 0.125810
vt 0.917902 0.033665
vt 0.917902 0.045567
vt 0.946457 0.149851
vt 0.946457 0.137851
vt 0.917902 0.021722
vt 0.917902 0.004393
vt 0.917902 0.508016
vt 0.917902 0.611110
vt 0.946457 0.598644
vt 0.946457 0.616117
vt 0.917902 0.478744
vt 0.917902 0.466842
vt 0.946457 0.574602
vt 0.946457 0.586603
vt 0.917902 0.490687
vt 0.936955 0.108337
vt 0.936955 0.004393
vt 0.928169 0.033665
vt 0.928169 0.045567
vt 0.936955 0.125810
vt 0.928169 0.021722
vt 0.936955 0.149851
vt 0.936955 0.137851
vt 0.928169 0.004393
vt 0.928169 0.611110
vt 0.928169 0.508016
vt 0.928169 0.478744
vt 0.928169 0.466842
vt 0.936955 0.598644
vt 0.936955 0.616117
vt 0.928169 0.490687
vt 0.936955 0.574602
vt 0.936955 0.586603
s 1
f 1/1/1 2/2/1 4/3/1 3/4/1
f 3/5/2 4/6/2 6/7/2 8/8/2
f 8/8/3 6/7/3 5/9/3 7/10/3
f 7/10/4 5/9/4 2/2/4 1/1/4
f 3/11/5 8/12/5 7/13/5 1/14/5
f 10/15/6 9/16/7 15/17/8 16/18/9
f 11/19/10 10/15/6 16/18/9 17/20/11
f 12/21/12 11/22/10 17/23/11 18/24/13
f 13/25/14 12/21/12 18/24/13 19/26/15
f 14/27/16 13/25/14 19/26/15 20/28/17
f 9/16/7 14/27/16 20/28/17 15/17/8
f 17/20/11 16/18/9 22/29/18 23/30/19
f 18/24/13 17/23/11 23/31/19 24/32/20
f 19/26/15 18/24/13 24/32/20 25/33/21
f 20/28/17 19/26/15 25/33/21 26/34/22
f 16/18/9 15/17/8 21/35/23 22/29/18
f 21/35/23 26/34/22 32/36/24 27/37/25
f 22/29/18 21/35/23 27/37/25 28/38/26
f 23/30/19 22/29/18 28/38/26 29/39/27
f 24/32/20 23/31/19 29/40/27 30/41/28
f 25/33/21 24/32/20 30/41/28 31/42/29
f 26/34/22 25/33/21 31/42/29 32/36/24
f 28/38/26 27/37/25 33/43/30 34/44/31
f 29/39/27 28/38/26 34/44/31 35/45/32
f 30/41/28 29/40/27 35/46/32 36/47/33
f 31/42/29 30/41/28 36/47/33 37/48/34
f 32/36/24 31/42/29 37/48/34 38/49/35
f 33/43/30 38/49/35 44/50/36 39/51/37
f 34/44/31 33/43/30 39/51/37 40/52/38
f 35/45/32 34/44/31 40/52/38 41/53/39
f 36/47/33 35/46/32 41/54/39 42/55/40
f 37/48/34 36/47/33 42/55/40 43/56/41
f 38/49/35 37/48/34 43/56/41 44/50/36
f 39/51/37 44/50/36 50/57/42 45/58/43
f 40/52/38 39/51/37 45/58/43 46/59/44
f 41/53/39 40/52/38 46/59/44 47/60/45
f 42/55/40 41/54/39 47/61/45 48/62/46
f 43/56/41 42/55/40 48/62/46 49/63/47
f 44/50/36 43/56/41 49/63/47 50/57/42
f 45/58/43 50/57/42 56/64/48 51/65/49
f 46/59/44 45/58/43 51/65/49 52/66/50
f 47/60/45 46/59/44 52/66/50 53/67/51
f 48/62/46 47/61/45 53/68/51 54/69/52
f 49/63/47 48/62/46 54/69/52 55/70/53
f 50/57/42 49/63/47 55/70/53 56/64/48
f 52/66/50 51/65/49 57/71/54 58/72/55
f 53/67/51 52/66/50 58/72/55 59/73/56
f 54/69/52 53/68/51 59/74/56 60/75/57
f 55/70/53 54/69/52 60/75/57 61/76/58
f 56/64/48 55/70/53 61/76/58 62/77/59
f 57/71/54 62/77/59 68/78/60 63/79/61
f 58/72/55 57/71/54 63/79/61 64/80/62
f 59/73/56 58/72/55 64/80/62 65/81/63
f 60/75/57 59/74/56 65/82/63 66/83/64
f 61/76/58 60/75/57 66/83/64 67/84/65
f 62/77/59 61/76/58 67/84/65 68/78/60
f 15/17/8 20/28/17 26/34/22 21/35/23
f 63/79/61 68/78/60 74/85/66 69/86/67
f 64/80/62 63/79/61 69/86/67 70/87/68
f 65/81/63 64/80/62 70/87/68 71/88/69
f 66/83/64 65/82/63 71/89/69 72/90/70
f 67/84/65 66/83/64 72/90/70 73/91/71
f 68/78/60 67/84/65 73/91/71 74/85/66
f 69/86/67 74/85/66 80/92/72 75/93/73
f 70/87/68 69/86/67 75/93/73 76/94/74
f 71/88/69 70/87/68 76/94/74 77/95/75
f 72/90/70 71/89/69 77/96/75 78/97/76
f 73/91/71 72/90/70 78/97/76 79/98/77
f 74/85/66 73/91/71 79/98/77 80/92/72
f 27/37/25 32/36/24 38/49/35 33/43/30
f 51/65/49 56/64/48 62/77/59 57/71/54
f 82/99/78 88/100/79 87/101/80 81/102/81
f 83/103/82 89/104/83 88/100/79 82/99/78
f 84/105/84 90/106/85 89/107/83 83/108/82
f 85/109/86 91/110/87 90/106/85 84/105/84
f 86/111/88 92/112/89 91/110/87 85/109/86
f 81/102/81 87/101/80 92/112/89 86/111/88
f 89/104/83 95/113/90 94/114/91 88/100/79
f 90/106/85 96/115/92 95/116/90 89/107/83
f 91/110/87 97/117/93 96/115/92 90/106/85
f 92/112/89 98/118/94 97/117/93 91/110/87
f 88/100/79 94/114/91 93/119/95 87/101/80
f 93/119/95 99/120/96 104/121/97 98/118/94
f 94/114/91 100/122/98 99/120/96 93/119/95
f 95/113/90 101/123/99 100/122/98 94/114/91
f 96/115/92 102/124/100 101/125/99 95/116/90
f 97/117/93 103/126/101 102/124/100 96/115/92
f 98/118/94 104/121/97 103/126/101 97/117/93
f 100/122/98 106/127/102 105/128/103 99/120/96
f 101/123/99 107/129/104 106/127/102 100/122/98
f 102/124/100 108/130/105 107/131/104 101/125/99
f 103/126/101 109/132/106 108/130/105 102/124/100
f 104/121/97 110/133/107 109/132/106 103/126/101
f 105/128/103 111/134/108 116/135/109 110/133/107
f 106/127/102 112/136/110 111/134/108 105/128/103
f 107/129/104 113/137/111 112/136/110 106/127/102
f 108/130/105 114/138/112 113/139/111 107/131/104
f 109/132/106 115/140/113 114/138/112 108/130/105
f 110/133/107 116/135/109 115/140/113 109/132/106
f 111/134/108 117/141/114 122/142/115 116/135/109
f 112/136/110 118/143/116 117/141/114 111/134/108
f 113/137/111 119/144/117 118/143/116 112/136/110
f 114/138/112 120/145/118 119/146/117 113/139/111
f 115/140/113 121/147/119 120/145/118 114/138/112
f 116/135/109 122/142/115 121/147/119 115/140/113
f 117/141/114 123/148/120 128/149/121 122/142/115
f 118/143/116 124/150/122 123/148/120 117/141/114
f 119/144/117 125/151/123 124/150/122 118/143/116
f 120/145/118 126/152/124 125/153/123 119/146/117
f 121/147/119 127/154/125 126/152/124 120/145/118
f 122/142/115 128/149/121 127/154/125 121/147/119
f 124/150/122 130/155/126 129/156/127 123/148/120
f 125/151/123 131/157/128 130/155/126 124/150/122
f 126/152/124 132/158/129 131/159/128 125/153/123
f 127/154/125 133/160/130 132/158/129 126/152/124
f 128/149/121 134/161/131 133/160/130 127/154/125
f 129/156/127 135/162/132 140/163/133 134/161/131
f 130/155/126 136/164/134 135/162/132 129/156/127
f 131/157/128 137/165/135 136/164/134 130/155/126
f 132/158/129 138/166/136 137/167/135 131/159/128
f 133/160/130 139/168/137 138/166/136 132/158/129
f 134/161/131 140/163/133 139/168/137 133/160/130
f 87/101/80 93/119/95 98/118/94 92/112/89
f 135/162/132 141/169/138 146/170/139 140/163/133
f 136/164/134 142/171/140 141/169/138 135/162/132
f 137/165/135 143/172/141 142/171/140 136/164/134
f 138/166/136 144/173/142 143/174/141 137/167/135
f 139/168/137 145/175/143 144/173/142 138/166/136
f 140/163/133 146/170/139 145/175/143 139/168/137
f 141/169/138 147/176/144 152/177/145 146/170/139
f 142/171/140 148/178/146 147/176/144 141/169/138
f 143/172/141 149/179/147 148/178/146 142/171/140
f 144/173/142 150/180/148 149/181/147 143/174/141
f 145/175/143 151/182/149 150/180/148 144/173/142
f 146/170/139 152/177/145 151/182/149 145/175/143
f 99/120/96 105/128/103 110/133/107 104/121/97
f 123/148/120 129/156/127 134/161/131 128/149/121
f 153/183/150 155/184/151 156/185/151 154/186/150
f 155/187/151 157/188/152 158/189/152 156/190/151
f 157/188/152 159/191/153 160/192/153 158/189/152
f 159/191/153 161/193/154 162/194/154 160/192/153
f 161/193/154 163/195/155 164/196/155 162/194/154
f 163/195/155 153/183/150 154/186/150 164/196/155
f 165/197/156 167/198/157 168/199/158 166/200/159
f 167/198/157 169/201/160 170/202/161 168/199/158
f 169/201/160 171/203/162 172/204/163 170/202/161
f 171/203/162 173/205/164 174/206/165 172/204/163
f 168/207/158 170/208/161 172/209/163 174/210/165 176/211/166 166/212/159
f 173/205/164 175/213/167 176/214/166 174/206/165
f 175/213/167 165/215/156 166/216/159 176/214/166
f 165/217/156 175/218/167 173/219/164 171/220/162 169/221/160 167/222/157
f 177/223/156 179/224/157 180/225/158 178/226/159
f 179/224/157 181/227/160 182/228/161 180/225/158
f 181/227/160 183/229/162 184/230/163 182/228/161
f 183/229/162 185/231/164 186/232/165 184/230/163
f 180/233/158 182/234/161 184/235/163 186/236/165 188/237/166 178/238/159
f 185/231/164 187/239/167 188/240/166 186/232/165
f 187/239/167 177/241/156 178/242/159 188/240/166
f 177/243/156 187/244/167 185/245/164 183/246/162 181/247/160 179/248/157
f 189/249/156 191/250/157 192/251/168 190/252/150
f 191/250/157 193/253/160 194/254/169 192/251/168
f 193/253/160 195/255/162 196/256/153 194/254/169
f 195/255/162 197/257/164 198/258/170 196/256/153
f 197/257/164 199/259/167 200/260/171 198/258/170
f 199/259/167 189/261/156 190/262/150 200/260/171
f 189/263/156 199/264/167 197/265/164 195/266/162 193/267/160 191/268/157
f 201/269/156 203/270/157 204/271/168 202/272/150
f 203/270/157 205/273/160 206/274/169 204/271/168
f 205/273/160 207/275/162 208/276/153 206/274/169
f 207/275/162 209/277/164 210/278/170 208/276/153
f 209/277/164 211/279/167 212/280/171 210/278/170
f 211/279/167 201/281/156 202/282/150 212/280/171
f 201/283/156 211/284/167 209/285/164 207/286/162 205/287/160 203/288/157
f 214/289/172 220/290/173 219/291/174 213/292/175
f 215/293/176 221/294/177 220/290/173 214/289/172
f 216/295/178 222/296/179 221/297/177 215/298/176
f 217/299/180 223/300/181 222/296/179 216/295/178
f 218/301/182 224/302/183 223/300/181 217/299/180
f 213/292/175 219/291/174 224/302/183 218/301/182
f 221/294/177 227/303/184 226/304/185 220/290/173
f 222/296/179 228/305/186 227/306/184 221/297/177
f 223/300/181 229/307/187 228/305/186 222/296/179
f 224/302/183 230/308/188 229/307/187 223/300/181
f 220/290/173 226/304/185 225/309/189 219/291/174
f 225/309/189 231/310/190 236/311/191 230/308/188
f 226/304/185 232/312/192 231/310/190 225/309/189
f 227/303/184 233/313/193 232/312/192 226/304/185
f 228/305/186 234/314/194 233/315/193 227/306/184
f 229/307/187 235/316/195 234/314/194 228/305/186
f 230/308/188 236/311/191 235/316/195 229/307/187
f 232/312/192 238/317/196 237/318/197 231/310/190
f 233/313/193 239/319/198 238/317/196 232/312/192
f 234/314/194 240/320/199 239/321/198 233/315/193
f 235/316/195 241/322/200 240/320/199 234/314/194
f 236/311/191 242/323/201 241/322/200 235/316/195
f 237/318/197 243/324/202 248/325/203 242/323/201
f 238/317/196 244/326/204 243/324/202 237/318/197
f 239/319/198 245/327/205 244/326/204 238/317/196
f 240/320/199 246/328/206 245/329/205 239/321/198
f 241/322/200 247/330/207 246/328/206 240/320/199
f 242/323/201 248/325/203 247/330/207 241/322/200
f 243/324/202 249/331/208 254/332/209 248/325/203
f 244/326/204 250/333/210 249/331/208 243/324/202
f 245/327/205 251/334/211 250/333/210 244/326/204
f 246/328/206 252/335/212 251/336/211 245/329/205
f 247/330/207 253/337/213 252/335/212 246/328/206
f 248/325/203 254/332/209 253/337/213 247/330/207
f 249/331/208 255/338/214 260/339/215 254/332/209
f 250/333/210 256/340/216 255/338/214 249/331/208
f 251/334/211 257/341/217 256/340/216 250/333/210
f 252/335/212 258/342/218 257/343/217 251/336/211
f 253/337/213 259/344/219 258/342/218 252/335/212
f 254/332/209 260/339/215 259/344/219 253/337/213
f 256/340/216 262/345/220 261/346/221 255/338/214
f 257/341/217 263/347/222 262/345/220 256/340/216
f 258/342/218 264/348/223 263/349/222 257/343/217
f 259/344/219 265/350/224 264/348/223 258/342/218
f 260/339/215 266/351/225 265/350/224 259/344/219
f 261/346/221 267/352/226 272/353/227 266/351/225
f 262/345/220 268/354/228 267/352/226 261/346/221
f 263/347/222 269/355/229 268/354/228 262/345/220
f 264/348/223 270/356/230 269/357/229 263/349/222
f 265/350/224 271/358/231 270/356/230 264/348/223
f 266/351/225 272/353/227 271/358/231 265/350/224
f 219/291/174 225/309/189 230/308/188 224/302/183
f 267/352/226 273/359/232 278/360/233 272/353/227
f 268/354/228 274/361/234 273/359/232 267/352/226
f 269/355/229 275/362/235 274/361/234 268/354/228
f 270/356/230 276/363/236 275/364/235 269/357/229
f 271/358/231 277/365/237 276/363/236 270/356/230
f 272/353/227 278/360/233 277/365/237 271/358/231
f 273/359/232 279/366/238 284/367/239 278/360/233
f 274/361/234 280/368/240 279/366/238 273/359/232
f 275/362/235 281/369/241 280/368/240 274/361/234
f 276/363/236 282/370/242 281/371/241 275/364/235
f 277/365/237 283/372/243 282/370/242 276/363/236
f 278/360/233 284/367/239 283/372/243 277/365/237
f 231/310/190 237/318/197 242/323/201 236/311/191
f 255/338/214 261/346/221 266/351/225 260/339/215
f 286/373/244 285/374/245 291/375/246 292/376/247
f 287/377/248 286/373/244 292/376/247 293/378/249
f 288/379/250 287/380/248 293/381/249 294/382/251
f 289/383/252 288/379/250 294/382/251 295/384/253
f 290/385/254 289/383/252 295/384/253 296/386/255
f 285/374/245 290/385/254 296/386/255 291/375/246
f 293/378/249 292/376/247 298/387/256 299/388/257
f 294/382/251 293/381/249 299/389/257 300/390/258
f 295/384/253 294/382/251 300/390/258 301/391/259
f 296/386/255 295/384/253 301/391/259 302/392/260
f 292/376/247 291/375/246 297/393/261 298/387/256
f 297/393/261 302/392/260 308/394/262 303/395/263
f 298/387/256 297/393/261 303/395/263 304/396/264
f 299/388/257 298/387/256 304/396/264 305/397/265
f 300/390/258 299/389/257 305/398/265 306/399/266
f 301/391/259 300/390/258 306/399/266 307/400/267
f 302/392/260 301/391/259 307/400/267 308/394/262
f 304/396/264 303/395/263 309/401/268 310/402/269
f 305/397/265 304/396/264 310/402/269 311/403/270
f 306/399/266 305/398/265 311/404/270 312/405/271
f 307/400/267 306/399/266 312/405/271 313/406/272
f 308/394/262 307/400/267 313/406/272 314/407/273
f 309/401/268 314/407/273 320/408/274 315/409/275
f 310/402/269 309/401/268 315/409/275 316/410/276
f 311/403/270 310/402/269 316/410/276 317/411/277
f 312/405/271 311/404/270 317/412/277 318/413/278
f 313/406/272 312/405/271 318/413/278 319/414/279
f 314/407/273 313/406/272 319/414/279 320/408/274
f 315/409/275 320/408/274 326/415/280 321/416/281
f 316/410/276 315/409/275 321/416/281 322/417/282
f 317/411/277 316/410/276 322/417/282 323/418/283
f 318/413/278 317/412/277 323/419/283 324/420/284
f 319/414/279 318/413/278 324/420/284 325/421/285
f 320/408/274 319/414/279 325/421/285 326/415/280
f 321/416/281 326/415/280 332/422/286 327/423/287
f 322/417/282 321/416/281 327/423/287 328/424/288
f 323/418/283 322/417/282 328/424/288 329/425/289
f 324/420/284 323/419/283 329/426/289 330/427/290
f 325/421/285 324/420/284 330/427/290 331/428/291
f 326/415/280 325/421/285 331/428/291 332/422/286
f 328/424/288 327/423/287 333/429/292 334/430/293
f 329/425/289 328/424/288 334/430/293 335/431/294
f 330/427/290 329/426/289 335/432/294 336/433/295
f 331/428/291 330/427/290 336/433/295 337/434/296
f 332/422/286 331/428/291 337/434/296 338/435/297
f 333/429/292 338/435/297 344/436/298 339/437/299
f 334/430/293 333/429/292 339/437/299 340/438/300
f 335/431/294 334/430/293 340/438/300 341/439/301
f 336/433/295 335/432/294 341/440/301 342/441/302
f 337/434/296 336/433/295 342/441/302 343/442/303
f 338/435/297 337/434/296 343/442/303 344/436/298
f 291/375/246 296/386/255 302/392/260 297/393/261
f 339/437/299 344/436/298 350/443/304 345/444/305
f 340/438/300 339/437/299 345/444/305 346/445/306
f 341/439/301 340/438/300 346/445/306 347/446/307
f 342/441/302 341/440/301 347/447/307 348/448/308
f 343/442/303 342/441/302 348/448/308 349/449/309
f 344/436/298 343/442/303 349/449/309 350/443/304
f 345/444/305 350/443/304 356/450/310 351/451/311
f 346/445/306 345/444/305 351/451/311 352/452/312
f 347/446/307 346/445/306 352/452/312 353/453/313
f 348/448/308 347/447/307 353/454/313 354/455/314
f 349/449/309 348/448/308 354/455/314 355/456/315
f 350/443/304 349/449/309 355/456/315 356/450/310
f 303/395/263 308/394/262 314/407/273 309/401/268
f 327/423/287 332/422/286 338/435/297 333/429/292
f 357/457/153 358/458/153 360/459/152 359/460/152
f 359/461/152 360/462/152 362/463/151 361/464/151
f 361/464/151 362/463/151 364/465/150 363/466/150
f 363/466/150 364/465/150 366/467/155 365/468/155
f 365/468/155 366/467/155 368/469/154 367/470/154
f 367/470/154 368/469/154 358/458/153 357/457/153
f 369/471/162 370/472/163 372/473/161 371/474/160
f 371/474/160 372/473/161 374/475/158 373/476/157
f 373/476/157 374/475/158 376/477/159 375/478/156
f 375/478/156 376/477/159 378/479/166 377/480/167
f 372/481/161 370/482/163 380/483/165 378/484/166 376/485/159 374/486/158
f 377/480/167 378/479/166 380/487/165 379/488/164
f 379/488/164 380/487/165 370/489/163 369/490/162
f 369/491/162 371/492/160 373/493/157 375/494/156 377/495/167 379/496/164
f 381/497/162 382/498/163 384/499/161 383/500/160
f 383/500/160 384/499/161 386/501/158 385/502/157
f 385/502/157 386/501/158 388/503/159 387/504/156
f 387/504/156 388/503/159 390/505/166 389/506/167
f 384/507/161 382/508/163 392/509/165 390/510/166 388/511/159 386/512/158
f 389/506/167 390/505/166 392/513/165 391/514/164
f 391/514/164 392/513/165 382/515/163 381/516/162
f 381/517/162 383/518/160 385/519/157 387/520/156 389/521/167 391/522/164
f 393/523/162 394/524/153 396/525/169 395/526/160
f 395/526/160 396/525/169 398/527/168 397/528/157
f 397/528/157 398/527/168 400/529/150 399/530/156
f 399/530/156 400/529/150 402/531/171 401/532/167
f 401/532/167 402/531/171 404/533/170 403/534/164
f 403/534/164 404/533/170 394/535/153 393/536/162
f 393/537/162 395/538/160 397/539/157 399/540/156 401/541/167 403/542/164
f 405/543/162 406/544/153 408/545/169 407/546/160
f 407/546/160 408/545/169 410/547/168 409/548/157
f 409/548/157 410/547/168 412/549/150 411/550/156
f 411/550/156 412/549/150 414/551/171 413/552/167
f 413/552/167 414/551/171 416/553/170 415/554/164
f 415/554/164 416/553/170 406/555/153 405/556/162
f 405/557/162 407/558/160 409/559/157 411/560/156 413/561/167 415/562/164
f 417/563/316 419/564/316 420/565/316 418/566/316
f 419/564/317 423/567/317 424/568/317 420/565/317
f 421/569/318 417/570/318 418/571/318 422/572/318
f 419/573/319 417/574/319 421/575/319 423/576/319
f 424/577/320 422/578/320 418/579/320 420/580/320
f 427/581/321 431/582/321 432/583/321 428/584/321
f 429/585/322 425/586/322 426/587/322 430/588/322
f 427/589/323 425/590/323 429/591/323 431/592/323
f 432/593/324 430/594/324 426/595/324 428/596/324
f 435/597/325 436/598/325 440/599/325 439/600/325
f 437/601/326 438/602/326 434/603/326 433/604/326
f 435/605/323 439/606/323 437/607/323 433/608/323
f 440/609/324 436/610/324 434/611/324 438/612/324
f 441/613/316 443/614/316 444/615/316 442/616/316
f 443/617/327 447/618/327 448/619/327 444/620/327
f 447/618/328 445/621/328 446/622/328 448/619/328
f 445/621/329 441/613/329 442/616/329 446/622/329
f 443/623/330 441/624/330 445/625/330 447/626/330
f 448/627/331 446/628/331 442/629/331 444/630/331
f 449/631/332 450/632/332 452/633/332 451/634/332
f 451/634/333 452/633/333 456/635/333 455/636/333
f 453/637/334 454/638/334 450/639/334 449/640/334
f 451/641/335 455/642/335 453/643/335 449/644/335
f 456/645/336 452/646/336 450/647/336 454/648/336
f 459/649/337 460/650/337 464/651/337 463/652/337
f 461/653/338 462/654/338 458/655/338 457/656/338
f 459/657/323 463/658/323 461/659/323 457/660/323
f 464/661/324 460/662/324 458/663/324 462/664/324
f 467/665/339 471/666/339 472/667/339 468/668/339
f 469/669/340 465/670/340 466/671/340 470/672/340
f 467/673/323 465/674/323 469/675/323 471/676/323
f 472/677/324 470/678/324 466/679/324 468/680/324
f 473/681/332 478/682/332 479/683/332 474/684/332
f 474/685/341 479/686/341 477/687/341 476/688/341
f 476/688/342 477/687/342 480/689/342 475/690/342
f 475/690/343 480/689/343 478/682/343 473/681/343
f 474/691/344 476/692/344 475/693/344 473/694/344
f 477/695/345 479/696/345 478/697/345 480/698/345
f 481/699/346 539/700/347 556/701/348 489/702/349
f 484/703/350 513/704/351 520/705/352 488/706/353
f 488/707/353 543/708/354 530/709/355 484/710/350
f 575/711/356 568/712/357 529/713/358 544/714/359
f 483/715/360 531/716/361 533/717/362 487/718/363
f 534/719/364 532/720/365 565/721/366 573/722/367
f 540/723/368 541/724/369 572/725/370 561/726/371
f 485/727/372 542/728/373 539/700/347 481/699/346
f 486/729/374 535/730/375 543/708/354 488/707/353
f 496/731/376 528/732/377 521/733/378 492/734/379
f 541/724/369 534/719/364 573/722/367 572/725/370
f 482/735/380 538/736/381 535/730/375 486/729/374
f 564/737/382 537/738/383 554/739/384 579/740/385
f 485/741/372 519/742/386 501/743/387 487/744/363
f 540/723/368 561/726/371 578/745/388 555/746/389
f 495/747/390 507/748/391 505/749/392 493/750/393
f 488/706/353 520/705/352 516/751/394 486/752/374
f 490/753/395 553/754/396 538/736/381 482/735/380
f 491/755/397 548/756/398 545/757/399 492/758/379
f 492/758/379 545/757/399 560/759/400 496/760/376
f 495/761/390 550/762/401 548/763/398 491/764/397
f 549/765/402 590/766/403 582/767/404 547/768/405
f 555/746/389 578/745/388 587/769/406 558/770/407
f 489/702/349 556/701/348 557/771/408 493/772/393
f 496/760/376 560/759/400 552/773/409 494/774/410
f 494/775/410 524/776/411 528/732/377 496/731/376
f 558/770/407 587/769/406 590/766/403 549/765/402
f 494/774/410 552/773/409 553/754/396 490/753/395
f 579/740/385 554/739/384 551/777/412 586/778/413
f 481/779/346 518/780/414 519/742/386 485/741/372
f 568/781/357 565/721/366 532/720/365 529/782/358
f 487/718/363 533/717/362 542/728/373 485/727/372
f 571/783/415 574/784/416 576/785/417 570/786/418
f 562/787/419 571/783/415 570/786/418 563/788/420
f 574/784/416 566/789/421 567/790/422 576/785/417
f 577/791/423 580/792/424 585/793/425 588/794/426
f 484/795/350 530/796/355 531/716/361 483/715/360
f 592/797/427 559/798/428 546/799/429 583/800/430
f 493/772/393 557/771/408 550/762/401 495/761/390
f 583/800/430 546/799/429 547/801/405 582/802/404
f 588/794/426 585/793/425 591/803/431 589/804/432
f 589/804/432 591/803/431 584/805/433 581/806/434
f 586/778/413 551/777/412 559/798/428 592/797/427
f 564/737/382 569/807/435 536/808/436 537/738/383
f 502/809/437 509/810/438 510/811/439 515/812/440
f 517/813/441 500/814/442 499/815/443 498/816/444
f 500/814/442 502/809/437 515/812/440 499/815/443
f 508/817/445 523/818/446 512/819/447 511/820/448
f 517/813/441 498/816/444 526/821/449 525/822/450
f 525/822/450 526/821/449 527/823/451 506/824/452
f 506/824/452 527/823/451 523/818/446 508/817/445
f 489/825/349 504/826/453 518/780/414 481/779/346
f 492/734/379 521/733/378 522/827/454 491/828/397
f 483/829/360 514/830/455 513/831/351 484/832/350
f 482/833/380 497/834/456 503/835/457 490/836/395
f 491/837/397 522/838/454 507/748/391 495/747/390
f 487/744/363 501/743/387 514/830/455 483/829/360
f 490/836/395 503/835/457 524/776/411 494/775/410
f 486/752/374 516/751/394 497/834/456 482/833/380
f 493/750/393 505/749/392 504/826/453 489/825/349
f 509/810/438 513/839/351 514/840/455 510/811/439
f 510/811/439 514/840/455 501/841/387 515/812/440
f 517/813/441 497/842/456 516/843/394 500/814/442
f 499/815/443 519/844/386 518/845/414 498/816/444
f 500/814/442 516/843/394 520/846/352 502/809/437
f 515/812/440 501/841/387 519/844/386 499/815/443
f 502/809/437 520/846/352 513/839/351 509/810/438
f 512/819/447 522/847/454 521/848/378 511/820/448
f 523/818/446 507/849/391 522/847/454 512/819/447
f 506/824/452 524/850/411 503/851/457 525/822/450
f 526/821/449 504/852/453 505/853/392 527/823/451
f 508/817/445 528/854/377 524/850/411 506/824/452
f 527/823/451 505/853/392 507/849/391 523/818/446
f 511/820/448 521/848/378 528/854/377 508/817/445
f 498/816/444 518/845/414 504/852/453 526/821/449
f 525/822/450 503/851/457 497/842/456 517/813/441
f 530/855/355 529/782/358 532/720/365 531/856/361
f 534/719/364 533/857/362 531/856/361 532/720/365
f 536/808/436 535/858/375 538/859/381 537/738/383
f 540/723/368 539/860/347 542/861/373 541/724/369
f 544/714/359 543/862/354 535/858/375 536/808/436
f 541/724/369 542/861/373 533/857/362 534/719/364
f 529/713/358 530/863/355 543/862/354 544/714/359
f 546/799/429 545/864/399 548/865/398 547/801/405
f 550/866/401 549/765/402 547/768/405 548/867/398
f 552/868/409 551/777/412 554/739/384 553/869/396
f 556/870/348 555/746/389 558/770/407 557/871/408
f 560/872/400 559/798/428 551/777/412 552/868/409
f 557/871/408 558/770/407 549/765/402 550/866/401
f 545/864/399 546/799/429 559/798/428 560/872/400
f 539/860/347 540/723/368 555/746/389 556/870/348
f 537/738/383 538/859/381 553/869/396 554/739/384
f 569/807/435 575/711/356 544/714/359 536/808/436
f 566/873/421 565/721/366 568/781/357 567/874/422
f 570/875/418 569/807/435 564/737/382 563/876/420
f 574/877/416 573/722/367 565/721/366 566/873/421
f 576/878/417 575/711/356 569/807/435 570/875/418
f 562/879/419 561/726/371 572/725/370 571/880/415
f 571/880/415 572/725/370 573/722/367 574/877/416
f 567/881/422 568/712/357 575/711/356 576/878/417
f 582/802/404 581/882/434 584/883/433 583/800/430
f 586/778/413 585/884/425 580/885/424 579/740/385
f 590/766/403 589/886/432 581/887/434 582/767/404
f 592/797/427 591/888/431 585/884/425 586/778/413
f 578/745/388 577/889/423 588/890/426 587/769/406
f 587/769/406 588/890/426 589/886/432 590/766/403
f 583/800/430 584/883/433 591/888/431 592/797/427
f 561/726/371 562/879/419 577/889/423 578/745/388
f 563/876/420 564/737/382 579/740/385 580/885/424
f 562/787/419 563/788/420 580/792/424 577/791/423
