# Smooth closed frustum matching the inverted cup used in the real sweep task.
v 0.052000 0.000000 0.000000
v 0.051001 0.010145 0.000000
v 0.048042 0.019900 0.000000
v 0.043236 0.028890 0.000000
v 0.036770 0.036770 0.000000
v 0.028890 0.043236 0.000000
v 0.019900 0.048042 0.000000
v 0.010145 0.051001 0.000000
v 0.000000 0.052000 0.000000
v -0.010145 0.051001 0.000000
v -0.019900 0.048042 0.000000
v -0.028890 0.043236 0.000000
v -0.036770 0.036770 0.000000
v -0.043236 0.028890 0.000000
v -0.048042 0.019900 0.000000
v -0.051001 0.010145 0.000000
v -0.052000 0.000000 0.000000
v -0.051001 -0.010145 0.000000
v -0.048042 -0.019900 0.000000
v -0.043236 -0.028890 0.000000
v -0.036770 -0.036770 0.000000
v -0.028890 -0.043236 0.000000
v -0.019900 -0.048042 0.000000
v -0.010145 -0.051001 0.000000
v 0.000000 -0.052000 0.000000
v 0.010145 -0.051001 0.000000
v 0.019900 -0.048042 0.000000
v 0.028890 -0.043236 0.000000
v 0.036770 -0.036770 0.000000
v 0.043236 -0.028890 0.000000
v 0.048042 -0.019900 0.000000
v 0.051001 -0.010145 0.000000
v 0.040000 0.000000 0.110000
v 0.039231 0.007804 0.110000
v 0.036955 0.015307 0.110000
v 0.033259 0.022223 0.110000
v 0.028284 0.028284 0.110000
v 0.022223 0.033259 0.110000
v 0.015307 0.036955 0.110000
v 0.007804 0.039231 0.110000
v 0.000000 0.040000 0.110000
v -0.007804 0.039231 0.110000
v -0.015307 0.036955 0.110000
v -0.022223 0.033259 0.110000
v -0.028284 0.028284 0.110000
v -0.033259 0.022223 0.110000
v -0.036955 0.015307 0.110000
v -0.039231 0.007804 0.110000
v -0.040000 0.000000 0.110000
v -0.039231 -0.007804 0.110000
v -0.036955 -0.015307 0.110000
v -0.033259 -0.022223 0.110000
v -0.028284 -0.028284 0.110000
v -0.022223 -0.033259 0.110000
v -0.015307 -0.036955 0.110000
v -0.007804 -0.039231 0.110000
v 0.000000 -0.040000 0.110000
v 0.007804 -0.039231 0.110000
v 0.015307 -0.036955 0.110000
v 0.022223 -0.033259 0.110000
v 0.028284 -0.028284 0.110000
v 0.033259 -0.022223 0.110000
v 0.036955 -0.015307 0.110000
v 0.039231 -0.007804 0.110000
v 0.000000 0.000000 0.000000
v 0.000000 0.000000 0.110000

s 1
f 1 2 34
f 1 34 33
f 2 3 35
f 2 35 34
f 3 4 36
f 3 36 35
f 4 5 37
f 4 37 36
f 5 6 38
f 5 38 37
f 6 7 39
f 6 39 38
f 7 8 40
f 7 40 39
f 8 9 41
f 8 41 40
f 9 10 42
f 9 42 41
f 10 11 43
f 10 43 42
f 11 12 44
f 11 44 43
f 12 13 45
f 12 45 44
f 13 14 46
f 13 46 45
f 14 15 47
f 14 47 46
f 15 16 48
f 15 48 47
f 16 17 49
f 16 49 48
f 17 18 50
f 17 50 49
f 18 19 51
f 18 51 50
f 19 20 52
f 19 52 51
f 20 21 53
f 20 53 52
f 21 22 54
f 21 54 53
f 22 23 55
f 22 55 54
f 23 24 56
f 23 56 55
f 24 25 57
f 24 57 56
f 25 26 58
f 25 58 57
f 26 27 59
f 26 59 58
f 27 28 60
f 27 60 59
f 28 29 61
f 28 61 60
f 29 30 62
f 29 62 61
f 30 31 63
f 30 63 62
f 31 32 64
f 31 64 63
f 32 1 33
f 32 33 64
s off
f 65 2 1
f 66 33 34
f 65 3 2
f 66 34 35
f 65 4 3
f 66 35 36
f 65 5 4
f 66 36 37
f 65 6 5
f 66 37 38
f 65 7 6
f 66 38 39
f 65 8 7
f 66 39 40
f 65 9 8
f 66 40 41
f 65 10 9
f 66 41 42
f 65 11 10
f 66 42 43
f 65 12 11
f 66 43 44
f 65 13 12
f 66 44 45
f 65 14 13
f 66 45 46
f 65 15 14
f 66 46 47
f 65 16 15
f 66 47 48
f 65 17 16
f 66 48 49
f 65 18 17
f 66 49 50
f 65 19 18
f 66 50 51
f 65 20 19
f 66 51 52
f 65 21 20
f 66 52 53
f 65 22 21
f 66 53 54
f 65 23 22
f 66 54 55
f 65 24 23
f 66 55 56
f 65 25 24
f 66 56 57
f 65 26 25
f 66 57 58
f 65 27 26
f 66 58 59
f 65 28 27
f 66 59 60
f 65 29 28
f 66 60 61
f 65 30 29
f 66 61 62
f 65 31 30
f 66 62 63
f 65 32 31
f 66 63 64
f 65 1 32
f 66 64 33
